<svg width="32" height="26" viewBox="0 0 32 26" fill="none" xmlns="http://www.w3.org/2000/svg">
<path d="M5.31448 0.999066C4.74452 0.371732 3.96511 0.0124718 3.14771 0.000318619C2.33031 -0.0118346 1.54188 0.324116 0.955864 0.934263C0.369848 1.54441 0.0342493 2.37877 0.0228965 3.2538C0.0115437 4.12883 0.325367 4.97285 0.895328 5.60019L7.97808 13.0203L0.895328 20.4404C0.611629 20.7416 0.38645 21.1 0.232782 21.4949C0.079115 21.8897 0 22.3132 0 22.741C0 23.1687 0.079115 23.5922 0.232782 23.9871C0.38645 24.382 0.611629 24.7403 0.895328 25.0415C1.17671 25.3452 1.51148 25.5863 1.88032 25.7508C2.24917 25.9153 2.64479 26 3.04437 26C3.44394 26 3.83957 25.9153 4.20841 25.7508C4.57726 25.5863 4.91203 25.3452 5.19341 25.0415L14.2739 15.3209C14.5576 15.0196 14.7827 14.6613 14.9364 14.2664C15.0901 13.8716 15.1692 13.4481 15.1692 13.0203C15.1692 12.5926 15.0901 12.169 14.9364 11.7742C14.7827 11.3793 14.5576 11.021 14.2739 10.7197L5.31448 0.999066ZM31.0424 10.7197L21.962 0.999066C21.392 0.388919 20.619 0.046142 19.8129 0.046142C19.0069 0.046142 18.2339 0.388919 17.6639 0.999066C17.0939 1.60921 16.7737 2.43675 16.7737 3.29963C16.7737 4.1625 17.0939 4.99004 17.6639 5.60019L24.6256 13.0203L17.6639 20.4404C17.3802 20.7416 17.155 21.1 17.0014 21.4949C16.8477 21.8897 16.7686 22.3132 16.7686 22.741C16.7686 23.1687 16.8477 23.5922 17.0014 23.9871C17.155 24.382 17.3802 24.7403 17.6639 25.0415C17.9453 25.3452 18.28 25.5863 18.6489 25.7508C19.0177 25.9153 19.4134 26 19.8129 26C20.2125 26 20.6081 25.9153 20.977 25.7508C21.3458 25.5863 21.6806 25.3452 21.962 25.0415L31.0424 15.3209C31.3342 15.0283 31.5689 14.6767 31.7331 14.2865C31.8972 13.8963 31.9875 13.4751 31.9988 13.0473C32.0101 12.6195 31.942 12.1936 31.7987 11.7941C31.6553 11.3946 31.4394 11.0294 31.1635 10.7197H31.0424Z" fill="#0676dd"/>
</svg>
