<svg width="53" height="80" viewBox="0 0 53 80" fill="none" xmlns="http://www.w3.org/2000/svg">
<path fill-rule="evenodd" clip-rule="evenodd" d="M15.0656 72.3837H0V70.744H6.52153V69.7005H1.2125V63.3789H13.8351V65.0173H3.19648V65.81H13.8351V67.3047H3.19648V68.1151H13.8711V69.7005H8.5248V70.744H15.0656V72.3837ZM11.5567 76.3271C11.5567 76.8312 11.4487 77.3051 11.2352 77.7499C11.0205 78.1948 10.7351 78.578 10.3802 78.9018C10.0125 79.2396 9.58943 79.5068 9.1124 79.7046C8.63409 79.9025 8.12106 80.0008 7.56946 80.0008C7.01785 80.0008 6.49968 79.9025 6.01751 79.7046C5.53276 79.5068 5.10716 79.2396 4.73943 78.9018C4.38455 78.578 4.0991 78.1948 3.88438 77.7499C3.67094 77.3051 3.56421 76.8312 3.56421 76.3271C3.56421 75.8217 3.67094 75.3516 3.88438 74.9143C4.0991 74.4757 4.38455 74.0939 4.73943 73.77C5.10716 73.4347 5.53276 73.1663 6.01751 72.9684C6.49968 72.7718 7.01785 72.6697 7.56946 72.6697C8.12106 72.6697 8.63409 72.7718 9.1124 72.9684C9.58943 73.1663 10.0125 73.4347 10.3802 73.77C10.7351 74.0939 11.0205 74.4757 11.2352 74.9143C11.4487 75.3516 11.5567 75.8217 11.5567 76.3271ZM9.58943 76.3107C9.58943 75.7688 9.39399 75.3025 9.00311 74.9143C8.60966 74.5236 8.13263 74.3283 7.56946 74.3283C7.00628 74.3283 6.52539 74.5236 6.1268 74.9143C5.72949 75.3025 5.5289 75.7688 5.5289 76.3107C5.5289 76.8501 5.72949 77.3126 6.1268 77.697C6.52539 78.0789 7.00628 78.273 7.56946 78.273C8.13263 78.273 8.60966 78.0789 9.00311 77.697C9.39399 77.3126 9.58943 76.8501 9.58943 76.3107Z" fill="#595B61"/>
<path d="M24.9508 77.1549H22.9861V65.9888H17.9316V64.1878H24.9508V77.1549ZM27.6149 63.2162H29.5256V79.1701H27.6149V73.5341H25.7595V71.805H27.6149V69.05H25.7595V67.3033H27.6149V63.2162ZM31.1804 63.1973H33.1271V79.2609H31.1804V63.1973Z" fill="#595B61"/>
<path fill-rule="evenodd" clip-rule="evenodd" d="M37.5232 66.2062V64.5312H41.3626V63H43.5304V64.5312H47.1872V66.2062H43.2L47.3351 70.3122L46.0107 71.5359L42.4465 67.8987L38.9196 71.8233L37.5592 70.5806L41.7123 66.2062H37.5232ZM50.6048 75.8411C50.6048 76.3792 50.4917 76.8871 50.2654 77.3635C50.0378 77.8361 49.7344 78.2545 49.355 78.6124C48.9757 78.9741 48.5257 79.259 48.005 79.4694C47.4842 79.6786 46.93 79.7845 46.3412 79.7845C45.7664 79.7845 45.2148 79.6786 44.6889 79.4694C44.1617 79.259 43.7091 78.9741 43.3285 78.6124C42.9479 78.2545 42.6458 77.8361 42.4195 77.3635C42.1919 76.8871 42.08 76.3792 42.08 75.8411C42.08 75.3004 42.1919 74.7925 42.4195 74.3199C42.6458 73.8435 42.9479 73.4251 43.3285 73.0672C43.7091 72.7067 44.1617 72.4206 44.6889 72.2114C45.2148 72.001 45.7664 71.8964 46.3412 71.8964C46.93 71.8964 47.4842 72.001 48.005 72.2114C48.5257 72.4206 48.9757 72.7067 49.355 73.0672C49.7344 73.4251 50.0378 73.8435 50.2654 74.3199C50.4917 74.7925 50.6048 75.3004 50.6048 75.8411ZM48.6016 75.8209C48.6016 75.221 48.3791 74.7068 47.9317 74.2733C47.4842 73.841 46.9468 73.6255 46.3231 73.6255C45.7111 73.6255 45.1839 73.841 44.7429 74.2733C44.3019 74.7068 44.082 75.221 44.082 75.8209C44.082 76.4346 44.3019 76.9539 44.7429 77.3811C45.1839 77.8058 45.7111 78.0188 46.3231 78.0188C46.9468 78.0188 47.4842 77.8058 47.9317 77.3811C48.3791 76.9539 48.6016 76.4346 48.6016 75.8209ZM49.9619 71.7527V68.6902H47.0959V66.9787H49.9619V63.1979H51.9999V71.7527H49.9619Z" fill="#595B61"/>
<path d="M53 26.5013C53 41.1369 41.136 53 26.5006 53C11.864 53 0 41.1369 0 26.5013C0 11.8644 11.864 0 26.5006 0C41.136 0 53 11.8644 53 26.5013Z" fill="white"/>
<path d="M38.7638 24.6855C34.6173 21.8664 29.3061 23.016 26.5196 27.2541C24.1914 30.7933 20.6757 31.2353 19.3133 31.2353C14.8797 31.2353 11.8426 28.1153 10.9461 24.887H10.9436C10.9335 24.8542 10.9259 24.8278 10.9171 24.7963C10.9096 24.7598 10.8957 24.7245 10.8907 24.6855C10.5368 23.3396 10.4487 22.6949 10.4487 21.2633C10.4487 13.5426 18.3702 4.94681 29.7796 4.94681C41.4635 4.94681 48.1497 13.841 49.8735 18.7842C49.8446 18.6973 49.8143 18.6092 49.7854 18.521C46.4725 8.85376 37.2994 1.90234 26.507 1.90234C12.9217 1.90234 1.90393 12.9156 1.90393 26.5024C1.90393 38.6475 10.6628 49.0438 22.8138 49.0438C32.5057 49.0438 39.0169 43.6096 42.0074 36.1231C43.6494 32.026 42.4847 27.2138 38.7638 24.6855Z" fill="#063862"/>
<path d="M50.0245 19.2643C48.5891 14.4408 41.8537 4.94727 29.7795 4.94727C18.3701 4.94727 10.4486 13.5431 10.4486 21.2638C10.4486 22.6954 10.5368 23.34 10.8906 24.686C10.7395 24.0967 10.6627 23.5075 10.6627 22.9308C10.6627 14.8915 18.7164 9.31881 26.9904 9.31881C38.1971 9.31881 47.2757 18.4019 47.2757 29.604C47.2757 38.3836 42.2239 45.9847 34.8817 49.6373V49.6423C44.3456 46.2151 51.1049 37.1509 51.1049 26.5028C51.1049 23.9847 50.7687 21.7611 50.0245 19.2643Z" fill="#FF2E31"/>
</svg>
