<svg width="72" height="74" viewBox="0 0 72 74" fill="none" xmlns="http://www.w3.org/2000/svg">
<path d="M40.3889 6.40474C40.4784 6.54858 40.5972 6.67469 40.6108 6.81852C40.7471 7.23624 41.1288 7.48648 41.1755 7.91602C41.1911 8.05591 41.3741 8.11306 41.4676 8.17611C41.5707 8.30812 41.4987 8.45984 41.6973 8.65688C41.7927 8.71796 41.7207 8.86968 41.7362 9.01352C41.8297 9.0746 41.929 9.13765 42.0225 9.2007C42.8792 10.5563 42.9629 12.1326 41.9679 13.5907C41.8102 13.7503 41.6584 13.9808 41.5941 14.2015C41.5123 14.2823 41.3449 14.369 41.2651 14.4498C41.2806 14.5936 41.376 14.6547 41.4792 14.7887C41.0489 14.901 41.0003 15.2635 40.6732 15.5138C40.5875 15.5197 40.4103 15.5394 40.3227 15.5453C40.0832 15.7837 39.8281 15.8803 39.5808 16.0477C39.503 16.1285 39.5224 16.3413 39.5322 16.4123C39.1272 16.7374 38.5275 16.9383 37.9064 16.9265C37.8187 16.9364 37.7545 17.1551 37.6649 17.1649C37.2268 17.2063 36.6933 17.1846 36.2553 17.226C36.0742 17.1728 35.971 17.0388 35.786 16.9817C35.6127 17.0014 35.4375 17.0152 35.2525 16.962C34.9682 16.7728 34.61 16.7354 34.3296 16.6191C34.1485 16.562 33.8117 16.7374 33.6209 16.6152C33.0328 16.0931 32.4468 15.5748 32.1216 15.0291C31.9074 14.6902 31.5414 14.5818 31.4129 14.235C31.3993 14.0912 31.4655 13.8705 31.2785 13.8173C30.9125 13.7069 31.0663 13.4764 31.0429 13.2636C30.932 13.0587 30.9144 12.9168 30.7178 12.7178C30.6068 12.5129 30.7509 12.2114 30.6321 11.9375C30.6243 11.8646 30.7061 11.7839 30.6983 11.7129C30.562 11.2952 30.7801 10.844 30.7412 10.4874C30.7158 10.2746 30.7743 9.98097 30.8385 9.76028C31.0546 9.30513 31.263 8.78298 31.6563 8.316C31.6465 8.24507 31.631 8.10517 31.6251 8.0303C31.7049 7.94951 31.7906 7.94361 31.8704 7.86282C32.0067 7.49239 32.1508 7.18895 32.3825 6.8796C32.6941 6.49144 33.1906 6.15648 33.5897 5.75846C33.8292 5.52202 34.166 5.34666 34.388 4.96243C34.4678 4.88559 34.7482 5.00184 34.828 4.92303C35.0656 4.68461 35.4258 4.72205 35.6731 4.55457C35.9203 4.38906 35.8697 4.7516 36.1248 4.65506C36.302 4.63732 36.3799 4.56048 36.5493 4.47181C36.8024 4.37723 37.0905 4.56245 37.3612 4.61171C37.624 4.58412 37.8947 4.63338 38.1809 4.82057C38.5606 5.07081 39.4406 4.98805 39.5808 5.47867C39.795 5.81757 40.1747 6.06978 40.3889 6.40474Z" fill="#CE2333"/>
<path fill-rule="evenodd" clip-rule="evenodd" d="M55.2237 12.0331C55.2139 11.8104 55.2236 11.6764 55.136 11.4419C55.1127 11.2213 55.286 10.973 55.212 10.6696C55.1594 10.5888 55.0504 10.4903 55.064 10.4233C55.212 9.95431 55.2236 9.52674 55.1847 9.01838C55.1477 8.86667 55.099 8.78391 55.0504 8.70115C55.0601 8.63219 55.0874 8.49427 55.1127 8.35634C55.1224 7.93074 54.9861 7.61351 54.8634 7.22732C54.8245 7.07757 54.7135 6.97905 54.6902 6.76034C54.6395 6.67758 54.5285 6.57907 54.5383 6.51207C54.6512 5.89141 54.3514 5.39487 54.2637 4.80376C54.1275 4.1299 53.4966 3.7043 53.298 3.01467C53.3077 2.9457 53.5161 2.97526 53.5764 2.98905C54.0729 3.45603 54.6201 4.00773 54.7563 4.6816C54.844 4.91607 54.807 5.12296 54.9082 5.29044C55.3268 5.81062 55.4028 6.47267 55.4787 7.13274C55.467 7.2017 55.6014 7.16033 55.652 7.24505C55.6384 7.31204 55.615 7.44997 55.6637 7.53272C55.985 7.88936 55.7883 8.27555 55.8506 8.64795C55.8895 8.79967 55.9363 8.88243 55.985 8.96321C55.9752 9.03415 55.8136 9.21345 55.8019 9.28241C56.0628 9.62526 56.1738 10.0804 56.0998 10.4922C56.3977 10.6321 56.2614 11.0301 56.3354 11.3316C56.3841 11.4163 56.4484 11.4281 56.5107 11.4419C56.5963 11.3198 56.682 11.1956 56.7073 11.0557C56.7443 10.4922 56.7716 9.99569 56.6684 9.47354C56.5847 9.23907 56.5554 9.01839 56.7171 8.84105C56.5944 8.81347 56.5554 8.65978 56.5087 8.57899C56.2848 7.66868 56.1913 6.65 55.9246 5.72195C55.9733 5.68452 56.0044 5.64511 56.0142 5.59979C55.9207 4.78603 55.3074 4.01956 55.0173 3.19988C54.9705 3.0521 54.7349 2.87674 54.624 2.71911C54.6298 2.67379 54.6337 2.6265 54.6395 2.58119C54.955 2.6265 55.1925 2.93191 55.358 3.16836C55.6851 3.63927 56.0628 4.15945 56.1621 4.68357C56.3354 5.15055 56.5924 5.64511 56.6956 6.10224C56.7638 6.4037 56.9819 6.60271 57.1259 6.85689C57.2077 7.09333 57.1649 7.29825 57.1882 7.51893C57.2759 8.04305 57.4355 8.55141 57.5309 9.0775C57.6575 9.46172 57.7081 9.90308 57.5835 10.2341C57.4102 10.839 57.8074 11.501 57.969 12.037C58.0547 12.2715 57.9456 12.5335 57.8463 12.7266C57.8347 12.7936 57.9457 12.8921 57.932 12.9591C57.8191 13.2212 57.9067 13.4557 57.8561 13.7315C57.7841 13.7867 57.9456 13.964 57.858 14.0862C57.784 14.1433 57.7237 14.1295 57.6478 14.1867C57.5485 14.3778 57.6361 14.6123 57.5991 14.8192C57.4005 15.2034 57.4998 15.7275 57.1279 16.0033C56.9896 16.0428 56.978 16.1137 56.904 16.1689C56.9643 16.1826 57.0169 16.2654 57.0656 16.3482C56.9896 16.4014 56.9273 16.3876 56.8533 16.4447C56.83 16.5807 57.0928 16.7501 57.1435 16.8309C57.0422 17.3826 56.6353 17.8653 56.6489 18.5116C56.6236 18.6496 56.5847 18.8584 56.5632 18.9944C56.4367 19.3254 56.2011 19.5599 56.0765 19.8909C56.0531 20.0268 55.7941 20.0426 55.7688 20.1786C55.6053 20.3579 55.6208 20.6455 55.5079 20.9076C55.4222 21.0317 55.2334 20.9923 55.0874 21.1007C54.9141 21.349 54.9374 21.5696 54.8264 21.8317C54.6395 22.1489 54.4137 22.4878 54.2287 22.8051C54.0184 23.2602 53.6602 23.6976 53.2785 24.0425C53.2162 24.0306 53.0799 24.07 53.0059 24.1272C52.8073 24.5114 52.5815 24.8011 52.1609 24.9941C52.0967 24.9823 52.0051 25.2798 51.9312 25.335C51.6391 25.5557 51.4716 25.804 51.1192 26.0109C50.9868 26.0522 50.9148 26.1074 50.7668 25.8591C50.3092 26.6867 49.692 27.333 49.0222 27.8985C48.6737 28.1054 48.3193 28.0817 48.0857 28.3142C47.3283 29.0748 46.1172 29.8767 45.979 29.991C45.94 29.9792 45.8427 30.0915 45.6888 30.3279C45.4416 30.3496 45.5818 30.3713 45.3559 30.3181C45.3481 30.5782 45.241 30.7279 45.0366 30.7693C44.3804 30.9013 44.2091 31.6717 44.1565 31.989C44.1312 32.1466 44.0241 32.0402 43.9482 32.1052C43.8742 32.1683 43.9229 32.2609 43.8489 32.3279C43.5646 32.5052 43.3173 32.8579 43.0817 33.1298C43.0077 33.1929 42.9591 33.0983 42.8851 33.1633C42.8091 33.2264 42.4626 33.6638 42.336 34.048C42.0381 34.7179 41.711 35.3189 41.3021 35.7918C41.2028 35.908 41.5338 36.3573 41.5085 36.507C41.415 36.7218 41.2262 36.7553 41.1327 36.9681C41.047 37.4942 41.0237 38.0794 40.9341 38.637C40.7861 39.1808 40.9692 39.567 41.0431 40.0517C41.1249 40.4596 41.0217 40.9876 41.0431 41.3837C41.0704 41.7029 41.2865 42.0536 41.2515 42.3649C41.2632 42.8418 41.1541 42.7767 41.2554 43.1767C41.2437 43.4132 41.1678 43.6417 41.2203 43.8013C41.2028 44.1166 41.1522 44.3097 41.1347 44.623C41.0685 44.6978 40.9341 44.8476 40.9302 44.9244C40.8854 45.7067 40.3772 46.3983 39.8476 46.9106C39.5186 47.1253 39.2324 47.4505 38.8585 47.4229C38.6716 47.411 38.0408 47.815 37.8324 47.8642C37.2736 48.0238 36.8297 48.0278 36.2981 47.9529C35.7101 47.7913 35.2448 47.6416 34.8378 47.0327C34.5983 46.7608 34.1836 46.8633 34.0279 46.4456C33.9811 46.282 33.6423 46.1953 33.5839 46.1086C33.2782 45.8269 33.1147 45.488 32.883 45.1392C32.7272 44.7254 32.8401 44.4397 32.6552 44.0358C32.4605 43.7895 32.3767 43.6141 32.184 43.3659C31.9289 43.0368 32.2443 42.5639 32.0555 42.2408C31.9231 42.1541 31.7965 41.9886 31.7342 41.827C31.6115 41.5058 31.6407 41.0389 31.4499 40.7C31.3487 40.2901 31.4129 38.8163 31.4908 38.4183C31.5064 38.3395 31.2786 38.2252 31.2922 38.1444C31.3234 37.571 31.52 37.0154 31.4752 36.4262C31.5356 36.107 31.5064 35.8529 31.7907 35.5829C31.7011 35.508 31.6602 35.445 31.6699 35.3918C31.8335 34.9307 31.8335 34.5761 31.9231 34.0973C31.9387 34.0165 32.1041 33.9672 32.1197 33.8884C32.0282 33.5377 32.0224 32.8264 32.0827 32.5072C32.1119 32.3476 32.5208 32.1111 32.6123 31.9673C32.626 31.8885 32.5559 31.6836 32.7077 31.4097C32.7467 31.3407 32.8538 31.3624 32.9317 31.2993C32.9433 31.2185 32.8927 31.124 32.9063 31.0432C32.9453 30.8067 33.3444 30.6333 33.3717 30.4737C33.5294 29.9319 33.7981 29.7073 34.0785 29.2659C34.1797 29.0748 34.2187 28.8659 34.3842 28.6886C34.4601 28.6334 34.4971 28.6866 34.5088 28.6157C34.5224 28.5487 34.4854 28.395 34.4971 28.328C34.6548 28.1487 34.8729 27.9832 34.9099 27.7763C35.0189 27.5142 35.1143 27.3212 35.274 27.1418C35.5621 26.9231 35.8542 26.7025 36.0353 26.3852C36.193 26.204 36.3741 26.2473 36.5337 26.068C36.7615 25.8335 36.8219 25.4907 36.9932 25.2424C37.3924 24.7577 37.8266 24.4286 38.2647 24.0976C38.6268 23.8218 39.0883 23.7114 39.4407 23.5045C39.8029 23.2287 40.0229 22.7065 40.3714 22.4997C40.5875 22.3341 40.8445 22.3204 41.0626 22.1529C41.2807 21.9893 41.4618 21.6721 41.7889 21.6031C42.5132 21.4081 41.9953 21.6169 42.6728 21.3411C43.0973 21.079 42.9221 21.0081 43.3426 20.7441C44.0475 20.3303 44.4135 20.0682 44.4719 20.08C44.544 20.0268 44.618 19.9697 44.6433 19.8337C44.8107 19.5835 45.7122 18.9471 45.8446 18.9037C45.979 18.8624 46.1347 19.0417 46.2924 18.8624C46.3781 18.7382 46.2068 18.6298 46.2924 18.5057C46.5222 18.2712 46.7442 17.956 46.9681 17.7905C47.0421 17.7353 47.2154 17.8437 47.3517 17.8023C47.4256 17.7491 47.449 17.6092 47.5249 17.556C47.6106 17.4319 47.449 17.2545 47.5366 17.1284C47.6359 16.9353 47.7333 16.7442 47.8735 16.7028C48.0837 16.6043 48.3661 16.4546 48.3291 16.3048C48.3797 16.029 48.4907 15.7649 48.7769 15.6152C48.7886 15.5462 48.8022 15.4753 48.8139 15.4083C48.9736 15.227 49.1235 15.1187 49.2851 14.9413C49.4584 14.6911 49.3824 14.3876 49.4837 14.1965C49.805 13.8379 50.1145 13.5502 50.2022 13.0675C50.1768 12.8468 50.0406 12.5296 50.1399 12.3365C50.2236 12.2143 50.4981 12.1316 50.5234 11.9917C50.5721 11.7178 50.4358 11.4006 50.4241 11.1109C50.4592 10.906 50.6831 10.7405 50.6578 10.5178C50.6344 9.94052 50.6714 9.37502 50.5857 8.78391C50.7824 8.75632 50.8058 8.6184 50.833 8.48244C50.7824 8.04108 50.5332 7.6273 50.4222 7.17412C50.4105 6.88447 50.6422 6.64803 50.6305 6.36036C50.6052 6.14164 50.3969 5.87762 50.171 5.68452C49.9607 5.42246 50.099 5.02444 50.023 4.72298C49.9607 4.35255 49.6881 4.07473 49.6375 3.63336C49.6141 3.41465 49.3532 3.42845 49.2656 3.19397C49.1897 2.89053 49.1176 2.5871 49.1176 2.22849C49.0807 2.07874 48.882 2.10633 48.7691 2.00781C48.5199 1.596 48.6075 0.756622 48.0623 0.563526C48.111 0.289645 47.8637 0.232504 47.7742 0C48.0993 0 48.3933 0.137927 48.5822 0.537912C48.6309 0.618697 48.8178 0.660075 48.8801 0.673868C49.0417 0.853171 49.03 1.27877 49.2033 1.39108C49.4253 1.58221 49.7621 1.51522 49.8478 1.74969C49.9724 2.13194 50.2586 2.33883 50.3949 2.65606C50.3832 2.72699 50.4202 2.87674 50.467 2.9595C50.6928 3.15259 50.7181 3.3713 50.8778 3.55061C51.2497 3.99197 51.6235 4.43333 51.4502 5.03824C51.3392 5.3003 51.6722 5.23133 51.7734 5.39487C52.0227 5.81062 51.9195 6.36035 52.2446 6.71699C52.1823 7.42041 52.5192 8.06866 52.7295 8.68736C52.3692 9.25286 52.5717 10.24 52.856 10.8055C52.9884 10.7878 53.0585 10.7563 53.0682 10.709C53.1286 10.3661 53.7478 10.2499 53.6485 10.0863C53.5239 9.69816 53.3369 8.89425 53.3369 8.53564C53.3739 7.97212 53.3973 7.47558 53.3116 6.88447C53.261 6.79975 53.2104 6.71699 53.1617 6.63621C53.0877 6.33277 53.0137 6.02736 53.0741 5.68452C53.0371 5.53477 52.9261 5.43822 52.8891 5.2865C52.9027 5.21557 52.9261 5.07961 52.9397 5.01065C53.0741 4.96927 53.2493 5.07961 53.3739 5.10917C53.4849 5.20375 53.3837 5.39487 53.4343 5.47763C53.6329 5.81062 53.9327 5.94658 53.9912 6.32095C53.9814 6.38794 53.9542 6.5239 53.9464 6.59483C53.9951 7.03422 54.256 7.37904 54.3183 7.75144C54.3436 7.97212 54.1567 8.28738 54.2443 8.52382C54.5285 9.08735 54.5402 9.73363 54.4935 10.3681C54.4409 10.642 54.7875 10.8627 54.6902 11.0557C54.5928 11.2488 54.7174 11.2745 54.6142 11.4695C54.6045 11.5385 54.4682 11.5779 54.4565 11.6488C54.6415 12.0488 54.3592 12.6537 54.2988 12.9966C54.2871 13.0655 54.5091 13.1384 54.5558 12.8862C54.5831 12.7325 54.8401 12.7365 54.9764 12.6951C55.1263 12.5828 55.2373 12.3227 55.2237 12.0331ZM56.5593 13.4084C56.573 13.0596 56.7346 12.8035 56.6723 12.4311C56.5496 12.0468 56.2673 12.4291 56.0687 12.4586C56.1816 12.9099 55.9966 13.2271 55.8584 13.6251C55.7727 13.7512 55.7085 14.096 55.909 14.0665C56.2206 14.1374 56.5515 13.8359 56.5593 13.4084ZM56.0297 15.294C56.1057 15.1856 56.0706 14.965 55.9596 14.8664C55.7863 14.7561 55.5624 14.9216 55.4612 15.1167C55.3619 15.3078 55.4378 15.6112 55.7007 15.5955C55.763 15.6112 55.9421 15.4201 56.0297 15.294Z" fill="#128ED0"/>
<path d="M52.381 3.54744C52.71 3.80161 52.8405 4.22524 53.1014 4.56809L53.0741 4.70601C52.6185 5.106 52.2194 4.44395 52.0967 4.05973C51.9098 3.65975 51.7229 3.25976 51.386 2.97209C51.3997 2.90312 51.4152 2.83219 51.4269 2.76323C51.2634 2.58392 51.0531 2.32384 51.2634 2.22729C51.349 2.10315 51.499 2.35142 51.6723 2.46176C51.9332 2.80658 51.9818 3.244 52.381 3.54744Z" fill="#128ED0"/>
<path d="M54.2579 1.7797C54.2637 1.84866 54.1527 1.96689 54.1372 2.03585C53.921 1.83487 53.7049 1.63192 53.516 1.29302C53.4557 1.27529 53.335 1.24376 53.2843 1.15706C53.2259 1.1413 53.2396 1.07234 53.2532 1.00535C53.4518 0.985641 53.6076 1.17283 53.7789 1.28908C53.8393 1.30484 53.9171 1.25361 53.9755 1.26938C54.1449 1.3876 54.2404 1.55705 54.2579 1.7797Z" fill="#128ED0"/>
<path fill-rule="evenodd" clip-rule="evenodd" d="M26.2573 14.4528C26.3176 14.502 26.4052 14.5808 26.4539 14.6419C26.5532 14.7089 26.6584 14.7168 26.7655 14.6695C26.8667 14.6774 26.9582 14.9453 27.0634 14.9532C27.2133 15.0242 27.3067 15.2921 27.4528 15.4202C27.5521 15.4872 27.6572 15.5818 27.7565 15.6488C27.8948 15.834 27.9902 16.0133 28.1362 16.1433C28.2316 16.2655 28.3893 16.2221 28.4945 16.23C28.6969 16.3049 28.7768 16.6005 28.9209 16.7857C28.9734 16.7896 29.063 16.9709 29.0611 17.028C29.1584 17.093 29.2558 17.2152 29.4057 17.2861C29.4505 17.3492 29.4466 17.4635 29.4894 17.5265C29.8652 18.1354 30.3559 18.5216 30.6732 19.1836C30.7005 19.2624 30.7141 19.3235 30.7122 19.3609C31.0977 19.7393 31.269 20.2732 31.602 20.7067C31.6935 20.886 31.7772 21.1816 31.8609 21.42C31.9583 21.5441 32.0556 21.6091 32.1511 21.7333C32.2873 21.9756 32.4236 22.2771 32.4528 22.5667C32.447 22.683 32.3691 23.0239 32.1744 22.8327C31.933 22.5825 31.9583 22.2397 31.713 22.0446C31.7188 21.9874 31.6507 21.8377 31.602 21.7766C31.5027 21.6564 31.3235 21.6643 31.2846 21.4889C31.2963 21.3175 31.1055 21.1757 31.0062 21.0555C30.7608 20.6988 30.4045 20.5668 30.1066 20.2062C30.0541 20.2043 29.9995 20.2003 29.9489 20.2555C29.8925 20.3678 29.7308 20.5333 29.8788 20.7126C30.0794 20.8387 30.1748 21.0732 30.4298 21.2013C30.5817 21.3234 30.6187 21.6722 30.7122 21.9638C30.8095 22.084 30.9108 22.2042 31.0646 22.2712C31.2145 22.3914 31.1542 22.5766 31.2963 22.7618C31.2924 22.8209 31.2379 22.8721 31.2301 22.9293C31.3236 23.1106 31.5338 23.0692 31.676 23.2544C31.7889 23.15 31.9408 23.2327 32.0323 23.3982C31.8629 23.5618 31.9077 23.678 31.8415 23.8494C31.6662 24.1214 32.0634 24.3854 32.3127 24.5194C32.4704 24.5332 32.447 24.8208 32.593 24.9469C32.6846 25.1302 32.9416 25.1499 33.0817 25.3942C33.1265 25.5144 33.0175 25.5617 32.9591 25.672C32.9435 25.8474 33.148 25.9203 33.2453 25.9853C33.3446 26.0523 33.3894 26.1725 33.4322 26.2907C33.2726 26.3341 32.9669 26.1213 32.813 26.1055C32.7137 26.0622 32.5288 25.8336 32.3282 25.7903C32.2601 25.7745 32.2134 25.942 32.1394 25.9262C32.0459 25.9105 31.9427 25.8888 31.8415 25.8691C31.7324 25.8494 31.4715 25.5578 31.3547 25.5381C31.2262 25.5164 31.0685 25.7568 30.9419 25.7351C30.4766 25.6543 30.4571 25.6208 30.3091 25.5597C30.1358 25.4908 29.9723 25.408 29.8185 25.3193C29.7153 25.2642 29.7445 25.1282 29.651 25.0671C29.5556 25.0041 29.3512 25.0061 29.2577 24.945C28.8839 24.7144 28.5295 24.1903 28.2121 24.0228C27.9999 23.9125 27.8227 23.8022 27.591 23.6879C27.4742 23.615 27.3944 23.4554 27.2503 23.4061C26.8102 23.2583 26.4578 22.9766 25.9574 22.8327C25.0092 22.5608 24.2226 23.1106 23.4515 23.5145C23.4107 23.5125 23.3289 23.5066 23.286 23.5362C23.1089 23.6879 22.8986 23.7726 22.7253 23.8908C22.4839 24.0839 22.1509 24.1332 21.8861 24.2888C21.8024 24.3401 21.7965 24.4938 21.7128 24.545C21.5863 24.6199 21.3643 24.6337 21.2416 24.7125C21.1267 24.7873 21.1131 24.9194 21.0021 25.0021C20.7841 25.1814 20.566 25.3312 20.2661 25.473C20.0967 25.5597 18.6754 25.806 18.4378 25.81C18.0718 25.8159 17.8187 26.1233 17.2696 26.1213C16.4401 26.1154 15.6087 26.0996 14.9175 25.5794C14.7715 25.4494 14.7443 25.1006 14.645 25.0356C14.349 24.8386 14.3763 24.4366 14.2925 24.1391C14.1971 24.0741 13.9888 24.0583 14.0005 23.8849C14.1153 23.0278 14.5359 22.2515 15.048 21.6584C15.1687 21.4357 15.4335 21.3431 15.4549 21.0555C15.7626 20.618 16.0098 20.3107 16.1968 20.1353C16.2571 20.023 16.1676 19.8417 16.226 19.7314C16.6504 18.8999 17.4215 18.3265 18.0465 17.5699C18.2139 17.4103 18.3346 17.1876 18.5975 17.1522C18.7026 17.16 18.8039 17.1679 18.8642 17.0596C18.9869 16.7798 19.2089 16.6241 19.3744 16.5216C19.9721 16.1079 20.4784 15.4833 21.1637 15.369C21.2708 15.3177 21.3312 15.2094 21.4402 15.1581C21.5512 15.0517 21.7498 15.1838 21.8569 15.1345C22.367 14.902 22.8324 14.4015 23.3561 14.3306C23.4632 14.2813 23.5255 14.171 23.5762 14.173C24.0415 14.2143 24.5906 13.7966 25.0287 14.236C25.422 14.1552 26.0119 14.24 26.2573 14.4528ZM29.8204 19.4989C29.8262 19.4417 29.8282 19.3846 29.8282 19.3274C29.6257 19.2033 29.5342 18.8506 29.2772 18.7817C29.2266 18.7777 29.1214 18.8329 29.1195 18.89C29.1058 19.2348 29.2519 19.4733 29.394 19.7668C29.4563 19.5402 29.6121 19.5481 29.7094 19.7255C29.762 19.6703 29.8185 19.558 29.8204 19.4989Z" fill="#379C44"/>
<path d="M9.24994 67.6403L8.02684 68.9178L4.63276 65.5843C4.18611 66.3811 3.65376 67.0577 3.03571 67.6142C2.41506 68.168 1.8022 68.62 1.18935 68.9674L0 67.6063C0.669985 67.2693 1.24129 66.8775 1.71392 66.4255C2.18914 65.9788 2.57606 65.5085 2.8773 65.0148C3.17853 64.521 3.39667 64.0168 3.5369 63.4995C3.67712 62.9849 3.74724 62.4807 3.74724 61.9869V59.6305H5.61957V61.6499C5.61957 62.0418 5.59619 62.418 5.54426 62.7759C5.49492 63.1364 5.42999 63.4839 5.35208 63.8183L9.24994 67.6403ZM13.127 73.4243H11.356V64.4087H7.66068V62.6923H11.356V58.1152H13.127V73.4243Z" fill="#2C2E35"/>
<path fill-rule="evenodd" clip-rule="evenodd" d="M29.1729 66.7309H22.8366V67.5721H25.9788V71.5248H19.9099V72.2824H26.3813V73.9988H18.0714V69.8946H24.122V69.2206H17.9857V67.5721H21.0448V66.7309H14.8435V65.0485H29.1729V66.7309ZM25.8281 61.3152C25.8281 61.7933 25.7269 62.2348 25.5191 62.6345C25.314 63.0316 25.0387 63.3765 24.6907 63.6691C24.335 63.9512 23.9143 64.168 23.4313 64.3248C22.9456 64.4815 22.4159 64.5599 21.8498 64.5599C21.3148 64.5599 20.8084 64.4868 20.3358 64.3431C19.8632 64.1968 19.4399 63.9826 19.0738 63.703C18.7154 63.4209 18.4349 63.0839 18.2272 62.6842C18.022 62.2871 17.9182 61.8377 17.9182 61.3309C17.9182 60.8267 18.0168 60.3669 18.2194 59.9594C18.4194 59.5492 18.6998 59.1991 19.0582 58.9065C19.401 58.6165 19.8139 58.3893 20.2943 58.2351C20.7747 58.0784 21.2915 58 21.8498 58C22.3951 58 22.9119 58.0784 23.3949 58.2351C23.8805 58.3893 24.3012 58.6165 24.657 58.9065C25.0153 59.1887 25.2984 59.5335 25.5113 59.9411C25.7217 60.3512 25.8281 60.8084 25.8281 61.3152ZM23.9896 61.2943C23.9896 60.7692 23.7766 60.3538 23.3533 60.0508C22.9301 59.7477 22.4289 59.5988 21.8498 59.5988C21.2473 59.5988 20.7435 59.7451 20.3358 60.043C19.9281 60.3408 19.7256 60.7588 19.7256 61.2943C19.7256 61.8116 19.9281 62.2165 20.3358 62.5091C20.7435 62.7991 21.2473 62.9454 21.8498 62.9454C22.4289 62.9454 22.9301 62.8122 23.3533 62.5431C23.7766 62.2714 23.9896 61.8586 23.9896 61.2943Z" fill="#2C2E35"/>
<path d="M44.2322 67.8346H29.9158V66.1339H44.2322V67.8346ZM41.1211 74H39.3319V70.4915H32.9255V68.7751H41.1211V74ZM41.0874 65.2587H32.993V58.6309H40.9887V60.329H34.7667V61.0526H40.7887V62.769H34.7667V63.5606H41.0874V65.2587Z" fill="#2C2E35"/>
<path fill-rule="evenodd" clip-rule="evenodd" d="M52.2616 65.9396H45.4553V58.9408H47.229V60.9576H50.4724V58.9408H52.2616V65.9396ZM50.4724 64.2415V62.6583H47.229V64.2415H50.4724ZM57.2943 73.9964H49.0857V69.7747H55.0558V68.9021H49V67.2014H56.8944V71.4258H50.958V72.2983H57.2943V73.9964ZM57.4294 66.7129H55.6713V65.0801H52.7966V63.3977H55.6713V62.1881H52.7966V60.4874H55.6713V58.1152H57.4294V66.7129Z" fill="#2C2E35"/>
<path d="M68.3386 67.6899L67.1181 68.9674L63.7396 65.6209C63.3033 66.4255 62.7761 67.11 62.1607 67.6638C61.54 68.2203 60.9142 68.6722 60.278 69.0197L59.0886 67.6534C59.7716 67.285 60.3455 66.8775 60.8207 66.4255C61.2934 65.9788 61.6829 65.5138 61.9841 65.0304C62.2724 64.5393 62.4879 64.0377 62.6255 63.5335C62.7657 63.0267 62.8359 62.5303 62.8359 62.0366V59.6305H64.7108V61.6995C64.7108 62.0914 64.6822 62.465 64.6329 62.8203C64.5835 63.173 64.5212 63.51 64.4407 63.8365L68.3386 67.6899ZM72.0001 73.4243H70.2109V58.1152H72.0001V73.4243Z" fill="#2C2E35"/>
</svg>
