<svg width="34" height="32" viewBox="0 0 34 32" fill="none" xmlns="http://www.w3.org/2000/svg">
<path d="M23.7391 32H10.7801C9.85737 32 9.11035 31.0835 9.11035 29.9568C9.11035 28.8301 9.85737 27.9136 10.7801 27.9136H23.7391C24.6618 27.9136 25.4088 28.8301 25.4088 29.9568C25.4088 31.0835 24.6618 32 23.7391 32Z" fill="#FFE057"/>
<path d="M17.7337 8.37412H16.7588V3.6709H17.7337V8.37412Z" fill="#222222"/>
<path d="M5.09326 19.5643C5.09326 20.9762 3.95523 22.1197 2.54663 22.1197C1.14082 22.1197 0 20.9762 0 19.5643C0 18.1552 1.14082 17.0117 2.54663 17.0117C3.95523 17.0117 5.09326 18.1552 5.09326 19.5643Z" fill="#0676DD"/>
<path d="M34 19.386C34 20.7959 32.8598 21.9401 31.4548 21.9401C30.0469 21.9401 28.9067 20.7959 28.9067 19.386C28.9067 17.9762 30.0469 16.832 31.4548 16.832C32.8598 16.832 34 17.9762 34 19.386Z" fill="#0676DD"/>
<path d="M17.7955 7.39118C25.6236 7.28803 30.1573 10.9223 31.3967 18.2975C33.2557 29.3585 23.3251 29.5648 20.4702 29.7745C19.1739 29.8674 16.4044 29.8777 13.9573 29.833C8.54471 29.7298 4.72233 28.5918 3.41975 23.1283C3.268 22.4922 3.16685 21.8389 3.12575 21.1719C2.7843 15.1858 6.50865 7.09548 17.7955 7.39118Z" fill="#0676DD"/>
<path d="M24.9436 14.0352H10.709C8.17007 14.0352 6.11182 16.0934 6.11182 18.6324C6.11182 21.1714 8.17007 23.2296 10.709 23.2296H24.9436C27.4826 23.2296 29.5408 21.1714 29.5408 18.6324C29.5408 16.0934 27.4826 14.0352 24.9436 14.0352Z" fill="white"/>
<path d="M21.4206 18.9285C21.5832 19.7583 22.3827 20.299 23.2147 20.1359C24.0421 19.9727 24.5813 19.1663 24.4186 18.3365C24.2559 17.5067 23.4518 16.966 22.6244 17.1291C21.797 17.2923 21.2579 18.0941 21.4206 18.9285Z" fill="#0676DD"/>
<path d="M11.2339 18.9238C11.3966 19.7583 12.2007 20.299 13.0281 20.1359C13.8556 19.9727 14.3948 19.1662 14.2321 18.3365C14.0694 17.5067 13.2699 16.966 12.4424 17.1291C11.615 17.2923 11.0712 18.0941 11.2339 18.9238Z" fill="#0676DD"/>
<path d="M19.7144 2.55152C19.7144 3.96183 18.5715 5.10803 17.1652 5.10803C15.759 5.10803 14.6211 3.96183 14.6211 2.55152C14.6211 1.14121 15.759 0 17.1652 0C18.5715 0 19.7144 1.14121 19.7144 2.55152Z" fill="#0676DD"/>
</svg>
