<svg width="48" height="48" viewBox="0 0 48 48" fill="none" xmlns="http://www.w3.org/2000/svg">
<path d="M48 0H0V48H48V0Z" fill="white" fill-opacity="0.01"/>
<path d="M4.99902 32.3135L20.0339 5.94269C20.958 3.9809 22.6267 3 25.0402 3C28.6603 3 31.0172 7.98626 31.0172 7.98626C31.0172 7.98626 32.3445 8.18402 34.999 8.57953C30.9888 8.64514 28.6699 9.45197 28.0424 11C27.1012 13.3221 30.4983 15.7308 31.0172 19.0039C31.5361 22.2769 29.4663 27.8051 24.4882 30.567C21.1694 32.4083 17.0262 32.886 12.0583 32L5.95844 43" stroke="#222222" stroke-width="2" stroke-linecap="round" stroke-linejoin="round"/>
<path fill-rule="evenodd" clip-rule="evenodd" d="M14.9424 26.979C17.5213 22.3294 19.2169 19.344 20.0293 18.0226C21.2478 16.0404 26.2745 16.638 24.4685 21.5853C23.2645 24.8834 20.0891 26.6813 14.9424 26.979Z" stroke="#222222" stroke-width="2" stroke-linejoin="round"/>
<path fill-rule="evenodd" clip-rule="evenodd" d="M32.9678 32.9836C34.1099 30.2471 35.7775 28.5888 37.9706 28.0087C40.1637 27.4286 42.1638 27.7818 43.971 29.0682C42.8455 31.6641 41.1772 33.3283 38.9661 34.0608C36.7549 34.7933 34.7555 34.4343 32.9678 32.9836Z" stroke="#222222" stroke-width="2" stroke-linejoin="round"/>
<path fill-rule="evenodd" clip-rule="evenodd" d="M26.9854 35.1136C27.7422 37.8354 29.7468 39.6557 32.9993 40.5746C36.2518 41.4935 38.9296 40.9685 41.0325 38.9997C38.4317 35.9693 36.088 34.3058 34.0015 34.0093C31.915 33.7129 29.5763 34.081 26.9854 35.1136Z" stroke="#222222" stroke-width="2" stroke-linejoin="round"/>
</svg>
