<svg width="16" height="16" viewBox="0 0 16 16" fill="none" xmlns="http://www.w3.org/2000/svg">
<path fill-rule="evenodd" clip-rule="evenodd" d="M0.727273 0C0.325611 0 0 0.325611 0 0.727273V3.63636C0 4.03803 0.325611 4.36364 0.727273 4.36364H1.70076C1.82897 4.47679 1.99737 4.54545 2.18182 4.54545C2.36626 4.54545 2.53467 4.47679 2.66288 4.36364H3.63636C4.03803 4.36364 4.36364 4.03803 4.36364 3.63636V2.66288C4.47679 2.53467 4.54545 2.36626 4.54545 2.18182C4.54545 1.99737 4.47679 1.82897 4.36364 1.70076V0.727273C4.36364 0.325611 4.03803 0 3.63636 0H0.727273ZM2.90909 1.45455V2.90909H1.45455V1.45455H2.90909Z" fill="#222222"/>
<path fill-rule="evenodd" clip-rule="evenodd" d="M12.3636 11.6364C11.962 11.6364 11.6364 11.962 11.6364 12.3636V13.3371C11.5232 13.4653 11.4545 13.6337 11.4545 13.8182C11.4545 14.0026 11.5232 14.171 11.6364 14.2992V15.2727C11.6364 15.6744 11.962 16 12.3636 16H15.2727C15.6744 16 16 15.6744 16 15.2727V12.3636C16 11.962 15.6744 11.6364 15.2727 11.6364H14.2992C14.171 11.5232 14.0026 11.4545 13.8182 11.4545C13.6337 11.4545 13.4653 11.5232 13.3371 11.6364H12.3636ZM13.0909 14.5455H14.5455V13.0909H13.0909V14.5455Z" fill="#222222"/>
<path fill-rule="evenodd" clip-rule="evenodd" d="M0 12.3636C0 11.962 0.325611 11.6364 0.727273 11.6364H1.70076C1.82897 11.5232 1.99737 11.4545 2.18182 11.4545C2.36626 11.4545 2.53467 11.5232 2.66288 11.6364H3.63636C4.03803 11.6364 4.36364 11.962 4.36364 12.3636V13.3371C4.47679 13.4653 4.54545 13.6337 4.54545 13.8182C4.54545 14.0026 4.47679 14.171 4.36364 14.2992V15.2727C4.36364 15.6744 4.03803 16 3.63636 16H0.727273C0.325611 16 0 15.6744 0 15.2727V12.3636ZM2.90909 13.0909H1.45455V14.5455H2.90909V13.0909Z" fill="#222222"/>
<path fill-rule="evenodd" clip-rule="evenodd" d="M12.3636 0C11.962 0 11.6364 0.325611 11.6364 0.727273V1.70076C11.5232 1.82897 11.4545 1.99737 11.4545 2.18182C11.4545 2.36626 11.5232 2.53467 11.6364 2.66288V3.63636C11.6364 4.03803 11.962 4.36364 12.3636 4.36364H13.3371C13.4653 4.47679 13.6337 4.54545 13.8182 4.54545C14.0026 4.54545 14.171 4.47679 14.2992 4.36364H15.2727C15.6744 4.36364 16 4.03803 16 3.63636V0.727273C16 0.325611 15.6744 0 15.2727 0H12.3636ZM14.5455 2.90909V1.45455H13.0909V2.90909H14.5455Z" fill="#222222"/>
<path d="M2.18182 4.90909C2.58348 4.90909 2.90909 5.2347 2.90909 5.63636V6C2.90909 6.40166 2.58348 6.72727 2.18182 6.72727C1.78016 6.72727 1.45455 6.40166 1.45455 6V5.63636C1.45455 5.2347 1.78016 4.90909 2.18182 4.90909Z" fill="#222222"/>
<path d="M2.18182 7.09091C2.58348 7.09091 2.90909 7.41652 2.90909 7.81818V8.18182C2.90909 8.58348 2.58348 8.90909 2.18182 8.90909C1.78016 8.90909 1.45455 8.58348 1.45455 8.18182V7.81818C1.45455 7.41652 1.78016 7.09091 2.18182 7.09091Z" fill="#222222"/>
<path d="M2.18182 9.27273C2.58348 9.27273 2.90909 9.59834 2.90909 10V10.3636C2.90909 10.7653 2.58348 11.0909 2.18182 11.0909C1.78016 11.0909 1.45455 10.7653 1.45455 10.3636V10C1.45455 9.59834 1.78016 9.27273 2.18182 9.27273Z" fill="#222222"/>
<path d="M14.5455 5.63636C14.5455 5.2347 14.2198 4.90909 13.8182 4.90909C13.4165 4.90909 13.0909 5.2347 13.0909 5.63636V6C13.0909 6.40166 13.4165 6.72727 13.8182 6.72727C14.2198 6.72727 14.5455 6.40166 14.5455 6V5.63636Z" fill="#222222"/>
<path d="M14.5455 7.81818C14.5455 7.41652 14.2198 7.09091 13.8182 7.09091C13.4165 7.09091 13.0909 7.41652 13.0909 7.81818V8.18182C13.0909 8.58348 13.4165 8.90909 13.8182 8.90909C14.2198 8.90909 14.5455 8.58348 14.5455 8.18182V7.81818Z" fill="#222222"/>
<path d="M14.5455 10C14.5455 9.59834 14.2198 9.27273 13.8182 9.27273C13.4165 9.27273 13.0909 9.59834 13.0909 10V10.3636C13.0909 10.7653 13.4165 11.0909 13.8182 11.0909C14.2198 11.0909 14.5455 10.7653 14.5455 10.3636V10Z" fill="#222222"/>
<path d="M4.90909 2.18182C4.90909 1.78016 5.2347 1.45455 5.63636 1.45455H6C6.40166 1.45455 6.72727 1.78016 6.72727 2.18182C6.72727 2.58348 6.40166 2.90909 6 2.90909H5.63636C5.2347 2.90909 4.90909 2.58348 4.90909 2.18182Z" fill="#222222"/>
<path d="M7.09091 2.18182C7.09091 1.78016 7.41652 1.45455 7.81818 1.45455H8.18182C8.58348 1.45455 8.90909 1.78016 8.90909 2.18182C8.90909 2.58348 8.58348 2.90909 8.18182 2.90909H7.81818C7.41652 2.90909 7.09091 2.58348 7.09091 2.18182Z" fill="#222222"/>
<path d="M9.27273 2.18182C9.27273 1.78016 9.59834 1.45455 10 1.45455H10.3636C10.7653 1.45455 11.0909 1.78016 11.0909 2.18182C11.0909 2.58348 10.7653 2.90909 10.3636 2.90909H10C9.59834 2.90909 9.27273 2.58348 9.27273 2.18182Z" fill="#222222"/>
<path d="M5.63636 13.0909C5.2347 13.0909 4.90909 13.4165 4.90909 13.8182C4.90909 14.2198 5.2347 14.5455 5.63636 14.5455H6C6.40166 14.5455 6.72727 14.2198 6.72727 13.8182C6.72727 13.4165 6.40166 13.0909 6 13.0909H5.63636Z" fill="#222222"/>
<path d="M7.81818 13.0909C7.41652 13.0909 7.09091 13.4165 7.09091 13.8182C7.09091 14.2198 7.41652 14.5455 7.81818 14.5455H8.18182C8.58348 14.5455 8.90909 14.2198 8.90909 13.8182C8.90909 13.4165 8.58348 13.0909 8.18182 13.0909H7.81818Z" fill="#222222"/>
<path d="M10 13.0909C9.59834 13.0909 9.27273 13.4165 9.27273 13.8182C9.27273 14.2198 9.59834 14.5455 10 14.5455H10.3636C10.7653 14.5455 11.0909 14.2198 11.0909 13.8182C11.0909 13.4165 10.7653 13.0909 10.3636 13.0909H10Z" fill="#222222"/>
</svg>
