<svg width="13" height="9" viewBox="0 0 13 9" fill="none" xmlns="http://www.w3.org/2000/svg">
<path d="M12.1872 0C11.9717 0 11.765 0.0861558 11.6125 0.239514C11.4601 0.392872 11.3745 0.60087 11.3745 0.817751V4.08875C11.3745 4.30563 11.2889 4.51363 11.1364 4.66699C10.984 4.82035 10.7773 4.9065 10.5617 4.9065H2.76744L3.82402 3.85161C3.97706 3.69762 4.06304 3.48877 4.06304 3.271C4.06304 3.05323 3.97706 2.84439 3.82402 2.6904C3.67097 2.53641 3.4634 2.44991 3.24696 2.44991C3.03052 2.44991 2.82295 2.53641 2.66991 2.6904L0.231646 5.14365C0.157652 5.22142 0.09965 5.31313 0.0609675 5.41351C-0.0203225 5.6126 -0.0203225 5.83591 0.0609675 6.035C0.09965 6.13538 0.157652 6.22709 0.231646 6.30486L2.66991 8.75811C2.74546 8.83476 2.83535 8.89559 2.93439 8.93711C3.03344 8.97863 3.13967 9 3.24696 9C3.35425 9 3.46049 8.97863 3.55953 8.93711C3.65857 8.89559 3.74846 8.83476 3.82402 8.75811C3.90019 8.68209 3.96066 8.59165 4.00192 8.492C4.04318 8.39235 4.06443 8.28546 4.06443 8.17751C4.06443 8.06955 4.04318 7.96267 4.00192 7.86302C3.96066 7.76337 3.90019 7.67292 3.82402 7.5969L2.76744 6.54201H10.5617C11.2084 6.54201 11.8286 6.28354 12.2859 5.82347C12.7431 5.36339 13 4.7394 13 4.08875V0.817751C13 0.60087 12.9144 0.392872 12.762 0.239514C12.6095 0.0861558 12.4028 0 12.1872 0Z" fill="#222222"/>
</svg>
