<svg width="48" height="48" viewBox="0 0 48 48" fill="none" xmlns="http://www.w3.org/2000/svg">
<path d="M16.1006 25.8277L38.7281 6.02875C38.7281 6.02875 40.8494 3.90743 42.9707 6.02875C45.092 8.15007 42.9707 10.2714 42.9707 10.2714L23.1717 32.8988L16.1006 25.8277Z" stroke="#222222" stroke-width="2" stroke-linejoin="round"/>
<path d="M22.4644 20.8789L28.1213 26.5358" stroke="#222222" stroke-width="2" stroke-linecap="round" stroke-linejoin="round"/>
<path d="M5.4939 30.7778L16.1005 25.8281L23.1716 32.8992L18.2219 43.5058C18.2219 43.5058 13.2721 44.2129 9.02944 39.9702C4.7868 35.7276 5.4939 30.7778 5.4939 30.7778Z" stroke="#222222" stroke-width="2" stroke-linejoin="round"/>
<path d="M6.9082 36.4339L11.858 34.3125" stroke="#222222" stroke-width="2" stroke-linecap="round" stroke-linejoin="round"/>
<path d="M12.5649 42.0901L13.9791 39.2617" stroke="#222222" stroke-width="2" stroke-linecap="round" stroke-linejoin="round"/>
<path d="M18.9292 23.3521L21.7576 20.8772L24.5861 18.4023" stroke="#222222" stroke-width="2" stroke-linejoin="round"/>
<path d="M30.5963 24.4141L28.1214 27.2426L25.6465 30.071" stroke="#222222" stroke-width="2" stroke-linejoin="round"/>
</svg>
