<svg width="48" height="48" viewBox="0 0 48 48" fill="none" xmlns="http://www.w3.org/2000/svg">
<path d="M48 0H0V48H48V0Z" fill="white" fill-opacity="0.01"/>
<path d="M18.2838 43.1708C14.9327 42.1731 11.9498 40.3208 9.58787 37.8665C10.469 36.8222 11 35.4729 11 33.9996C11 30.6859 8.31371 27.9996 5 27.9996C4.79955 27.9996 4.60139 28.0094 4.40599 28.0286C4.13979 26.7272 4 25.3797 4 23.9996C4 21.909 4.32077 19.8933 4.91579 17.999C4.94381 17.9994 4.97188 17.9996 5 17.9996C8.31371 17.9996 11 15.3133 11 11.9996C11 11.0483 10.7786 10.1487 10.3846 9.34963C12.6975 7.19901 15.5205 5.58954 18.6521 4.72266C19.6444 6.66771 21.6667 7.99965 24 7.99965C26.3333 7.99965 28.3556 6.66771 29.3479 4.72266C32.4795 5.58954 35.3025 7.19901 37.6154 9.34963C37.2214 10.1487 37 11.0483 37 11.9996C37 15.3133 39.6863 17.9996 43 17.9996C43.0281 17.9996 43.0562 17.9994 43.0842 17.999C43.6792 19.8933 44 21.909 44 23.9996C44 25.3797 43.8602 26.7272 43.594 28.0286C43.3986 28.0094 43.2005 27.9996 43 27.9996C39.6863 27.9996 37 30.6859 37 33.9996C37 35.4729 37.531 36.8222 38.4121 37.8665C36.0502 40.3208 33.0673 42.1731 29.7162 43.1708C28.9428 40.7514 26.676 38.9996 24 38.9996C21.324 38.9996 19.0572 40.7514 18.2838 43.1708Z" stroke="#222222" stroke-width="2" stroke-linejoin="round"/>
<path d="M24 31C27.866 31 31 27.866 31 24C31 20.134 27.866 17 24 17C20.134 17 17 20.134 17 24C17 27.866 20.134 31 24 31Z" stroke="#222222" stroke-width="2" stroke-linejoin="round"/>
</svg>
