<svg width="48" height="48" viewBox="0 0 48 48" fill="none" xmlns="http://www.w3.org/2000/svg">
<path d="M27.0003 12C27.0003 12 33.9997 19 33.9998 28C33.9999 37 29.5557 44.2228 25.9998 44C22.444 43.7772 19.0002 37 20.0003 28C21.0003 19 27.0003 12 27.0003 12Z" stroke="#222222" stroke-width="2" stroke-linecap="round" stroke-linejoin="round"/>
<path d="M27 12.0005C27 12.0005 28.0013 7.8758 31.0004 5.93816C33.9996 4.00052 39.8903 9.00055 39.0002 12.0005C38.1101 15.0005 34.9998 15.0005 33.9999 12.0005C33 9.00056 38.0002 5.50055 41.0002 5.93816C44.0002 6.37577 44.2571 11.1803 44.0002 14.0005C43.4992 19.5005 42.0002 24.0005 42.0002 24.0005" stroke="#222222" stroke-width="2" stroke-linecap="round" stroke-linejoin="round"/>
<path d="M26.9999 11.9986C26.9999 11.9986 26.9999 19.9986 20 27.9986C13.0001 35.9986 6.32549 37.6982 4.00043 34.9986C1.67536 32.299 4.00042 24.9986 11.0001 17.9986C17.9997 10.9986 26.9999 11.9986 26.9999 11.9986Z" stroke="#222222" stroke-width="2" stroke-linecap="round" stroke-linejoin="round"/>
<path d="M27.2432 29.9102C28.6239 29.9102 29.7432 28.7909 29.7432 27.4102C29.7432 26.0294 28.6239 24.9102 27.2432 24.9102C25.8625 24.9102 24.7432 26.0294 24.7432 27.4102C24.7432 28.7909 25.8625 29.9102 27.2432 29.9102Z" fill="#222222"/>
<path d="M26.2432 36.9102C27.6239 36.9102 28.7432 35.7909 28.7432 34.4102C28.7432 33.0294 27.6239 31.9102 26.2432 31.9102C24.8625 31.9102 23.7432 33.0294 23.7432 34.4102C23.7432 35.7909 24.8625 36.9102 26.2432 36.9102Z" fill="#222222"/>
</svg>
