<svg width="48" height="48" viewBox="0 0 48 48" fill="none" xmlns="http://www.w3.org/2000/svg">
<path d="M35.9786 15.4983C35.4536 15.0179 34.8809 14.5906 34.2688 14.2233L32.8034 13.3441C31.4442 12.5285 29.9497 11.9635 28.3909 11.6759L27.8672 11.5793C25.0469 11.0588 22.3297 10.0946 19.8159 8.72475C19.586 7.70876 18.7942 6.86309 17.7106 6.61688C16.2072 6.27526 14.7114 7.21712 14.3698 8.72059C14.0282 10.224 14.97 11.7198 16.4735 12.0614C16.5995 12.09 16.7255 12.1096 16.8507 12.1207C18.5056 13.7393 19.9052 15.602 21 17.6452" stroke="#333333" stroke-width="2" stroke-linecap="round" stroke-linejoin="round"/>
<path d="M11.3067 25.0202C11.0447 25.3022 8 28.6516 8 32.001C8 35.501 9.55844 37.001 11 38.001C12.4416 39.001 14.7208 40.001 16.6104 40.001C18.5 40.001 28.5 41.001 33 40.001C37.5 39.001 38 38.001 40 36.001C41.0815 34.9195 41.882 33.3993 42.3892 32.2311C42.8802 31.1001 43.2654 29.9255 43.5649 28.7294C43.9246 27.2932 44.2883 25.2309 44 23.501C43.5 20.501 42 18.501 37 16.001C32.3958 13.6989 28.3532 14.7886 27.7421 14.9755C27.6868 14.9924 27.6352 15.0105 27.5806 15.0297C26.7806 15.3126 20.3163 17.6264 17.5714 19.501C14.7687 21.415 11.6092 24.7029 11.3428 24.982C11.3293 24.9961 11.3201 25.0058 11.3067 25.0202Z" stroke="#333333" stroke-width="2" stroke-linecap="round" stroke-linejoin="round"/>
<path d="M6.10263 20.0113C5.97741 20.0003 5.85146 19.9807 5.72546 19.952C4.222 19.6104 3.28014 18.1147 3.62176 16.6112C3.96338 15.1077 5.45912 14.1659 6.96259 14.5075C8.04613 14.7537 8.83798 15.5994 9.0679 16.6154C11.5816 17.9852 14.2989 18.9495 17.1192 19.4699L17.6428 19.5665C19.2016 19.8542 20.6961 20.4192 22.0553 21.2347L23.5207 22.1139C24.5005 22.7018 25.3793 23.4435 26.1234 24.3106L26.5288 24.7831C27.7526 26.2092 28.3101 28.0896 28.0613 29.9523L28.0331 30.164C27.8636 31.4331 27.2894 32.6137 26.3957 33.5306L25.9345 34.0038C24.4094 35.5685 22.2148 36.2873 20.0595 35.9281C18.3925 35.6503 16.8493 34.8726 15.6342 33.6981L14.8952 32.9838C14.301 32.4095 13.7859 31.7587 13.3634 31.0485L11.1909 27.3967L10.5574 26.1266C9.42238 23.8509 7.91571 21.7846 6.10263 20.0113Z" stroke="#333333" stroke-width="2" stroke-linecap="round" stroke-linejoin="round"/>
</svg>
