<svg width="19" height="18" viewBox="0 0 19 18" fill="none" xmlns="http://www.w3.org/2000/svg">
<path d="M12.7928 5.661C12.7101 5.57664 12.6118 5.50969 12.5034 5.464C12.3951 5.41831 12.2788 5.39478 12.1615 5.39478C12.0441 5.39478 11.9279 5.41831 11.8195 5.464C11.7112 5.50969 11.6128 5.57664 11.5302 5.661L9.49398 7.731L7.45781 5.661C7.29038 5.49153 7.0633 5.39632 6.82651 5.39632C6.58973 5.39632 6.36264 5.49153 6.19521 5.661C6.02778 5.83047 5.93372 6.06033 5.93372 6.3C5.93372 6.53967 6.02778 6.76953 6.19521 6.939L8.24027 9L6.19521 11.061C6.11187 11.1447 6.04573 11.2442 6.00058 11.3539C5.95544 11.4636 5.9322 11.5812 5.9322 11.7C5.9322 11.8188 5.95544 11.9364 6.00058 12.0461C6.04573 12.1558 6.11187 12.2553 6.19521 12.339C6.27787 12.4234 6.37621 12.4903 6.48456 12.536C6.59292 12.5817 6.70913 12.6052 6.82651 12.6052C6.94389 12.6052 7.06011 12.5817 7.16846 12.536C7.27681 12.4903 7.37516 12.4234 7.45781 12.339L9.49398 10.269L11.5302 12.339C11.6128 12.4234 11.7112 12.4903 11.8195 12.536C11.9279 12.5817 12.0441 12.6052 12.1615 12.6052C12.2788 12.6052 12.3951 12.5817 12.5034 12.536C12.6118 12.4903 12.7101 12.4234 12.7928 12.339C12.8761 12.2553 12.9422 12.1558 12.9874 12.0461C13.0325 11.9364 13.0558 11.8188 13.0558 11.7C13.0558 11.5812 13.0325 11.4636 12.9874 11.3539C12.9422 11.2442 12.8761 11.1447 12.7928 11.061L10.7477 9L12.7928 6.939C12.8761 6.85533 12.9422 6.75579 12.9874 6.64612C13.0325 6.53645 13.0558 6.41881 13.0558 6.3C13.0558 6.18119 13.0325 6.06355 12.9874 5.95388C12.9422 5.84421 12.8761 5.74467 12.7928 5.661V5.661ZM15.7181 0H3.26989C2.56243 0 1.88395 0.284464 1.3837 0.790812C0.883453 1.29716 0.602417 1.98392 0.602417 2.7V15.3C0.602417 16.0161 0.883453 16.7028 1.3837 17.2092C1.88395 17.7155 2.56243 18 3.26989 18H15.7181C16.4255 18 17.104 17.7155 17.6043 17.2092C18.1045 16.7028 18.3855 16.0161 18.3855 15.3V2.7C18.3855 1.98392 18.1045 1.29716 17.6043 0.790812C17.104 0.284464 16.4255 0 15.7181 0ZM16.6072 15.3C16.6072 15.5387 16.5136 15.7676 16.3468 15.9364C16.1801 16.1052 15.9539 16.2 15.7181 16.2H3.26989C3.03407 16.2 2.80791 16.1052 2.64116 15.9364C2.47441 15.7676 2.38073 15.5387 2.38073 15.3V2.7C2.38073 2.46131 2.47441 2.23239 2.64116 2.0636C2.80791 1.89482 3.03407 1.8 3.26989 1.8H15.7181C15.9539 1.8 16.1801 1.89482 16.3468 2.0636C16.5136 2.23239 16.6072 2.46131 16.6072 2.7V15.3Z" fill="#999999"/>
</svg>
