<svg width="18" height="16" viewBox="0 0 18 16" fill="none" xmlns="http://www.w3.org/2000/svg">
<path d="M17.388 1.82112L11.988 0.0444384H11.925C11.8831 0.0402824 11.8409 0.0402824 11.799 0.0444384H11.592H11.475H11.412L6.3 1.7767L1.188 0.0444384C1.05266 0.000386951 0.908646 -0.0113091 0.767825 0.0103126C0.627003 0.0319344 0.493397 0.0862559 0.378003 0.168806C0.261685 0.250548 0.166741 0.358434 0.101014 0.483552C0.0352872 0.608669 0.000663258 0.747427 3.00018e-06 0.888362V13.3251C-0.000484045 13.5114 0.05834 13.693 0.168161 13.8445C0.277981 13.9959 0.433244 14.1095 0.612003 14.1691L6.012 15.9457C6.1933 16.0041 6.3887 16.0041 6.57 15.9457L11.7 14.2579L16.812 15.9902C16.9076 16.003 17.0044 16.003 17.1 15.9902C17.2882 15.9928 17.4719 15.9334 17.622 15.8214C17.7383 15.7396 17.8333 15.6317 17.899 15.5066C17.9647 15.3815 17.9993 15.2428 18 15.1018V2.66504C18.0005 2.47881 17.9417 2.29713 17.8318 2.14569C17.722 1.99426 17.5668 1.88072 17.388 1.82112ZM5.4 13.867L1.8 12.6855V2.12316L5.4 3.30465V13.867ZM10.8 12.6855L7.2 13.867V3.30465L10.8 2.12316V12.6855ZM16.2 13.867L12.6 12.6855V2.12316L16.2 3.30465V13.867Z" fill="#222222"/>
</svg>
