<svg width="16" height="16" viewBox="0 0 16 16" fill="none" xmlns="http://www.w3.org/2000/svg">
<path d="M0.8 5.6C1.01217 5.6 1.21566 5.51571 1.36569 5.36569C1.51571 5.21566 1.6 5.01217 1.6 4.8V2.4C1.6 2.18783 1.68429 1.98434 1.83431 1.83431C1.98434 1.68429 2.18783 1.6 2.4 1.6H4.8C5.01217 1.6 5.21566 1.51571 5.36569 1.36569C5.51571 1.21566 5.6 1.01217 5.6 0.8C5.6 0.587827 5.51571 0.384344 5.36569 0.234315C5.21566 0.0842854 5.01217 0 4.8 0H2.4C1.76348 0 1.15303 0.252856 0.702944 0.702944C0.252856 1.15303 0 1.76348 0 2.4V4.8C0 5.01217 0.0842854 5.21566 0.234315 5.36569C0.384344 5.51571 0.587827 5.6 0.8 5.6ZM4.8 14.4H2.4C2.18783 14.4 1.98434 14.3157 1.83431 14.1657C1.68429 14.0157 1.6 13.8122 1.6 13.6V11.2C1.6 10.9878 1.51571 10.7843 1.36569 10.6343C1.21566 10.4843 1.01217 10.4 0.8 10.4C0.587827 10.4 0.384344 10.4843 0.234315 10.6343C0.0842854 10.7843 0 10.9878 0 11.2V13.6C0 14.2365 0.252856 14.847 0.702944 15.2971C1.15303 15.7471 1.76348 16 2.4 16H4.8C5.01217 16 5.21566 15.9157 5.36569 15.7657C5.51571 15.6157 5.6 15.4122 5.6 15.2C5.6 14.9878 5.51571 14.7843 5.36569 14.6343C5.21566 14.4843 5.01217 14.4 4.8 14.4ZM12 8.8C12.2122 8.8 12.4157 8.71571 12.5657 8.56569C12.7157 8.41566 12.8 8.21217 12.8 8C12.8 7.78783 12.7157 7.58434 12.5657 7.43431C12.4157 7.28429 12.2122 7.2 12 7.2H11.088C10.9444 6.64971 10.6566 6.14765 10.2545 5.7455C9.85235 5.34335 9.35029 5.05565 8.8 4.912V4C8.8 3.78783 8.71571 3.58434 8.56569 3.43431C8.41566 3.28429 8.21217 3.2 8 3.2C7.78783 3.2 7.58434 3.28429 7.43431 3.43431C7.28429 3.58434 7.2 3.78783 7.2 4V4.912C6.64971 5.05565 6.14765 5.34335 5.7455 5.7455C5.34335 6.14765 5.05565 6.64971 4.912 7.2H4C3.78783 7.2 3.58434 7.28429 3.43431 7.43431C3.28429 7.58434 3.2 7.78783 3.2 8C3.2 8.21217 3.28429 8.41566 3.43431 8.56569C3.58434 8.71571 3.78783 8.8 4 8.8H4.912C5.05565 9.35029 5.34335 9.85235 5.7455 10.2545C6.14765 10.6566 6.64971 10.9444 7.2 11.088V12C7.2 12.2122 7.28429 12.4157 7.43431 12.5657C7.58434 12.7157 7.78783 12.8 8 12.8C8.21217 12.8 8.41566 12.7157 8.56569 12.5657C8.71571 12.4157 8.8 12.2122 8.8 12V11.088C9.35029 10.9444 9.85235 10.6566 10.2545 10.2545C10.6566 9.85235 10.9444 9.35029 11.088 8.8H12ZM8 9.6C7.68355 9.6 7.37421 9.50616 7.11109 9.33035C6.84797 9.15454 6.64289 8.90466 6.52179 8.61229C6.40069 8.31993 6.36901 7.99823 6.43074 7.68786C6.49248 7.37749 6.64487 7.09239 6.86863 6.86863C7.09239 6.64487 7.37749 6.49248 7.68786 6.43074C7.99823 6.36901 8.31993 6.40069 8.61229 6.52179C8.90466 6.64289 9.15454 6.84797 9.33035 7.11109C9.50616 7.37421 9.6 7.68355 9.6 8C9.6 8.42435 9.43143 8.83131 9.13137 9.13137C8.83131 9.43143 8.42435 9.6 8 9.6ZM15.2 10.4C14.9878 10.4 14.7843 10.4843 14.6343 10.6343C14.4843 10.7843 14.4 10.9878 14.4 11.2V13.6C14.4 13.8122 14.3157 14.0157 14.1657 14.1657C14.0157 14.3157 13.8122 14.4 13.6 14.4H11.2C10.9878 14.4 10.7843 14.4843 10.6343 14.6343C10.4843 14.7843 10.4 14.9878 10.4 15.2C10.4 15.4122 10.4843 15.6157 10.6343 15.7657C10.7843 15.9157 10.9878 16 11.2 16H13.6C14.2365 16 14.847 15.7471 15.2971 15.2971C15.7471 14.847 16 14.2365 16 13.6V11.2C16 10.9878 15.9157 10.7843 15.7657 10.6343C15.6157 10.4843 15.4122 10.4 15.2 10.4ZM13.6 0H11.2C10.9878 0 10.7843 0.0842854 10.6343 0.234315C10.4843 0.384344 10.4 0.587827 10.4 0.8C10.4 1.01217 10.4843 1.21566 10.6343 1.36569C10.7843 1.51571 10.9878 1.6 11.2 1.6H13.6C13.8122 1.6 14.0157 1.68429 14.1657 1.83431C14.3157 1.98434 14.4 2.18783 14.4 2.4V4.8C14.4 5.01217 14.4843 5.21566 14.6343 5.36569C14.7843 5.51571 14.9878 5.6 15.2 5.6C15.4122 5.6 15.6157 5.51571 15.7657 5.36569C15.9157 5.21566 16 5.01217 16 4.8V2.4C16 1.76348 15.7471 1.15303 15.2971 0.702944C14.847 0.252856 14.2365 0 13.6 0Z" fill="#0676DD"/>
</svg>
