<svg width="48" height="48" viewBox="0 0 48 48" fill="none" xmlns="http://www.w3.org/2000/svg">
<path d="M33 14C35.7614 14 38 11.7614 38 9C38 6.23858 35.7614 4 33 4C30.2386 4 28 6.23858 28 9C28 11.7614 30.2386 14 33 14Z" stroke="#222222" stroke-width="2" stroke-miterlimit="2"/>
<path d="M40.0002 23.0018H32.3702C31.8102 23.0018 31.2702 22.7618 30.8902 22.3518L25.5502 16.5718C24.9002 15.8618 23.8402 15.7118 23.0202 16.2118L15.5702 20.7918C14.9402 21.1818 14.9402 22.1018 15.5702 22.4918L23.0302 27.0618C23.6202 27.4218 23.9902 28.0718 23.9902 28.7718L24.0002 38.0018" stroke="#222222" stroke-width="2" stroke-miterlimit="2" stroke-linecap="round" stroke-linejoin="round"/>
<path d="M36.5 44C40.6421 44 44 40.6421 44 36.5C44 32.3579 40.6421 29 36.5 29C32.3579 29 29 32.3579 29 36.5C29 40.6421 32.3579 44 36.5 44Z" stroke="#222222" stroke-width="2"/>
<path d="M11.5 44C15.6421 44 19 40.6421 19 36.5C19 32.3579 15.6421 29 11.5 29C7.35786 29 4 32.3579 4 36.5C4 40.6421 7.35786 44 11.5 44Z" stroke="#222222" stroke-width="2"/>
</svg>
