<svg width="10" height="10" viewBox="0 0 10 10" fill="none" xmlns="http://www.w3.org/2000/svg">
<g clip-path="url(#clip0_810_441)">
<path d="M0.246296 5.59399L4.40953 9.76239C4.48872 9.83829 4.5821 9.89778 4.6843 9.93746C4.88702 10.0208 5.1144 10.0208 5.31712 9.93746C5.41932 9.89778 5.5127 9.83829 5.59189 9.76239L9.75513 5.59399C9.83276 5.51626 9.89434 5.42398 9.93636 5.32242C9.97837 5.22086 10 5.11201 10 5.00208C10 4.78007 9.91192 4.56715 9.75513 4.41017C9.59834 4.25318 9.38568 4.16499 9.16395 4.16499C8.94221 4.16499 8.72956 4.25318 8.57277 4.41017L5.83336 7.16131V0.833679C5.83336 0.612573 5.74563 0.400523 5.58948 0.244178C5.43333 0.0878334 5.22154 1.9306e-08 5.00071 0C4.77988 -1.9306e-08 4.56809 0.0878333 4.41194 0.244178C4.25579 0.400523 4.16806 0.612573 4.16806 0.833679V7.16131L1.42865 4.41016C1.35125 4.33203 1.25916 4.27 1.15769 4.22768C1.05623 4.18535 0.947395 4.16356 0.837475 4.16356C0.727556 4.16356 0.618724 4.18535 0.517258 4.22768C0.415793 4.27 0.323702 4.33203 0.246296 4.41016C0.168253 4.48767 0.106308 4.57987 0.0640355 4.68146C0.0217629 4.78305 9.622e-09 4.89202 0 5.00208C-9.621e-09 5.11213 0.0217629 5.2211 0.0640354 5.32269C0.106308 5.42428 0.168253 5.51649 0.246296 5.59399Z" fill="#0676DD"/>
</g>
<defs>
<clipPath id="clip0_810_441">
<rect width="10" height="10" fill="white"/>
</clipPath>
</defs>
</svg>
