<svg width="16" height="16" viewBox="0 0 16 16" fill="none" xmlns="http://www.w3.org/2000/svg">
<path d="M12.9974 10.1298C13.3703 9.98063 13.5517 9.55738 13.4025 9.18444C13.2534 8.81151 12.8301 8.63012 12.4572 8.77929L12.0784 8.93081C11.7055 9.07998 11.5241 9.50323 11.6732 9.87616C11.8224 10.2491 12.2457 10.4305 12.6186 10.2813L12.9974 10.1298Z" fill="#222222"/>
<path d="M10.3459 11.1904C10.7188 11.0412 10.9002 10.618 10.751 10.245C10.6018 9.87212 10.1786 9.69072 9.80566 9.8399L9.04808 10.1429C8.67515 10.2921 8.49375 10.7154 8.64293 11.0883C8.7921 11.4612 9.21535 11.6426 9.58828 11.4934L10.3459 11.1904Z" fill="#222222"/>
<path d="M7.31556 12.4025C7.68849 12.2534 7.86988 11.8301 7.72071 11.4572C7.57154 11.0842 7.14828 10.9028 6.77535 11.052L6.01778 11.355C5.64484 11.5042 5.46345 11.9275 5.61262 12.3004C5.7618 12.6733 6.18505 12.8547 6.55798 12.7056L7.31556 12.4025Z" fill="#222222"/>
<path d="M4.28525 13.6146C4.65819 13.4655 4.83958 13.0422 4.69041 12.6693C4.54123 12.2964 4.11798 12.115 3.74505 12.2641L3.36626 12.4157C2.99333 12.5648 2.81193 12.9881 2.96111 13.361C3.11028 13.7339 3.53353 13.9153 3.90647 13.7662L4.28525 13.6146Z" fill="#222222"/>
<path fill-rule="evenodd" clip-rule="evenodd" d="M2.18182 7.63636C2.18182 6.43138 3.15865 5.45455 4.36364 5.45455C5.56862 5.45455 6.54545 6.43138 6.54545 7.63636C6.54545 8.08303 6.35644 8.58775 6.10504 9.09054C5.84127 9.61809 5.45664 10.2427 4.96203 10.9588C4.82624 11.1554 4.60256 11.2727 4.36364 11.2727C4.12471 11.2727 3.90103 11.1554 3.76524 10.9588C3.27063 10.2427 2.88601 9.61809 2.62223 9.09054C2.37084 8.58775 2.18182 8.08303 2.18182 7.63636ZM4.36364 6.90909C3.96197 6.90909 3.63636 7.2347 3.63636 7.63636C3.63636 7.72525 3.68977 7.97315 3.92322 8.44005C4.03721 8.66803 4.18352 8.9279 4.36364 9.22045C4.54376 8.9279 4.69006 8.66803 4.80405 8.44005C5.0375 7.97315 5.09091 7.72525 5.09091 7.63636C5.09091 7.2347 4.7653 6.90909 4.36364 6.90909Z" fill="#222222"/>
<path fill-rule="evenodd" clip-rule="evenodd" d="M11.6364 2.18182C10.4314 2.18182 9.45455 3.15865 9.45455 4.36364C9.45455 4.8103 9.64356 5.31502 9.89496 5.81782C10.1587 6.34536 10.5434 6.97002 11.038 7.68607C11.1738 7.88265 11.3974 8 11.6364 8C11.8753 8 12.099 7.88265 12.2348 7.68607C12.7294 6.97002 13.114 6.34536 13.3778 5.81782C13.6292 5.31502 13.8182 4.8103 13.8182 4.36364C13.8182 3.15865 12.8413 2.18182 11.6364 2.18182ZM10.9091 4.36364C10.9091 3.96197 11.2347 3.63636 11.6364 3.63636C12.038 3.63636 12.3636 3.96197 12.3636 4.36364C12.3636 4.45252 12.3102 4.70042 12.0768 5.16732C11.9628 5.3953 11.8165 5.65517 11.6364 5.94772C11.4562 5.65517 11.3099 5.3953 11.1959 5.16732C10.9625 4.70042 10.9091 4.45252 10.9091 4.36364Z" fill="#222222"/>
<path fill-rule="evenodd" clip-rule="evenodd" d="M1.81818 0C0.814028 0 0 0.814028 0 1.81818V14.1818C0 15.186 0.814028 16 1.81818 16H14.1818C15.186 16 16 15.186 16 14.1818V1.81818C16 0.814028 15.186 0 14.1818 0H1.81818ZM1.45455 1.81818C1.45455 1.61735 1.61735 1.45455 1.81818 1.45455H14.1818C14.3826 1.45455 14.5455 1.61735 14.5455 1.81818V14.1818C14.5455 14.3826 14.3826 14.5455 14.1818 14.5455H1.81818C1.61735 14.5455 1.45455 14.3826 1.45455 14.1818V1.81818Z" fill="#222222"/>
</svg>
