<svg width="16" height="16" viewBox="0 0 16 16" fill="none" xmlns="http://www.w3.org/2000/svg">
<path d="M5.832 9.032L1.6 13.272V12C1.6 11.7878 1.51571 11.5843 1.36569 11.4343C1.21566 11.2843 1.01217 11.2 0.8 11.2C0.587827 11.2 0.384344 11.2843 0.234315 11.4343C0.0842854 11.5843 0 11.7878 0 12V15.2C0.00126399 15.3045 0.0230072 15.4078 0.0639999 15.504C0.14518 15.6995 0.30052 15.8548 0.496 15.936C0.592178 15.977 0.695458 15.9987 0.8 16H4C4.21217 16 4.41566 15.9157 4.56569 15.7657C4.71571 15.6157 4.8 15.4122 4.8 15.2C4.8 14.9878 4.71571 14.7843 4.56569 14.6343C4.41566 14.4843 4.21217 14.4 4 14.4H2.728L6.968 10.168C7.11864 10.0174 7.20327 9.81304 7.20327 9.6C7.20327 9.38696 7.11864 9.18264 6.968 9.032C6.81736 8.88136 6.61304 8.79673 6.4 8.79673C6.18696 8.79673 5.98264 8.88136 5.832 9.032ZM2.728 1.6H4C4.21217 1.6 4.41566 1.51571 4.56569 1.36569C4.71571 1.21566 4.8 1.01217 4.8 0.8C4.8 0.587827 4.71571 0.384344 4.56569 0.234315C4.41566 0.0842854 4.21217 0 4 0H0.8C0.695458 0.00126399 0.592178 0.0230072 0.496 0.0639999C0.30052 0.14518 0.14518 0.30052 0.0639999 0.496C0.0230072 0.592178 0.00126399 0.695458 0 0.8V4C0 4.21217 0.0842854 4.41566 0.234315 4.56569C0.384344 4.71571 0.587827 4.8 0.8 4.8C1.01217 4.8 1.21566 4.71571 1.36569 4.56569C1.51571 4.41566 1.6 4.21217 1.6 4V2.728L5.832 6.968C5.90637 7.04298 5.99485 7.1025 6.09234 7.14311C6.18983 7.18373 6.29439 7.20464 6.4 7.20464C6.50561 7.20464 6.61017 7.18373 6.70766 7.14311C6.80515 7.1025 6.89363 7.04298 6.968 6.968C7.04298 6.89363 7.1025 6.80515 7.14311 6.70766C7.18373 6.61017 7.20464 6.50561 7.20464 6.4C7.20464 6.29439 7.18373 6.18983 7.14311 6.09234C7.1025 5.99485 7.04298 5.90637 6.968 5.832L2.728 1.6ZM15.2 11.2C14.9878 11.2 14.7843 11.2843 14.6343 11.4343C14.4843 11.5843 14.4 11.7878 14.4 12V13.272L10.168 9.032C10.0174 8.88136 9.81304 8.79673 9.6 8.79673C9.38696 8.79673 9.18264 8.88136 9.032 9.032C8.88136 9.18264 8.79673 9.38696 8.79673 9.6C8.79673 9.81304 8.88136 10.0174 9.032 10.168L13.272 14.4H12C11.7878 14.4 11.5843 14.4843 11.4343 14.6343C11.2843 14.7843 11.2 14.9878 11.2 15.2C11.2 15.4122 11.2843 15.6157 11.4343 15.7657C11.5843 15.9157 11.7878 16 12 16H15.2C15.3045 15.9987 15.4078 15.977 15.504 15.936C15.6995 15.8548 15.8548 15.6995 15.936 15.504C15.977 15.4078 15.9987 15.3045 16 15.2V12C16 11.7878 15.9157 11.5843 15.7657 11.4343C15.6157 11.2843 15.4122 11.2 15.2 11.2ZM15.936 0.496C15.8548 0.30052 15.6995 0.14518 15.504 0.0639999C15.4078 0.0230072 15.3045 0.00126399 15.2 0H12C11.7878 0 11.5843 0.0842854 11.4343 0.234315C11.2843 0.384344 11.2 0.587827 11.2 0.8C11.2 1.01217 11.2843 1.21566 11.4343 1.36569C11.5843 1.51571 11.7878 1.6 12 1.6H13.272L9.032 5.832C8.95702 5.90637 8.8975 5.99485 8.85689 6.09234C8.81627 6.18983 8.79536 6.29439 8.79536 6.4C8.79536 6.50561 8.81627 6.61017 8.85689 6.70766C8.8975 6.80515 8.95702 6.89363 9.032 6.968C9.10637 7.04298 9.19485 7.1025 9.29234 7.14311C9.38983 7.18373 9.49439 7.20464 9.6 7.20464C9.70561 7.20464 9.81017 7.18373 9.90766 7.14311C10.0051 7.1025 10.0936 7.04298 10.168 6.968L14.4 2.728V4C14.4 4.21217 14.4843 4.41566 14.6343 4.56569C14.7843 4.71571 14.9878 4.8 15.2 4.8C15.4122 4.8 15.6157 4.71571 15.7657 4.56569C15.9157 4.41566 16 4.21217 16 4V0.8C15.9987 0.695458 15.977 0.592178 15.936 0.496Z" fill="#222222"/>
</svg>
