<svg width="48" height="48" viewBox="0 0 48 48" fill="none" xmlns="http://www.w3.org/2000/svg">
<path d="M48 0H0V48H48V0Z" fill="white" fill-opacity="0.01"/>
<path d="M19.193 21.543L21.512 40.0954C21.7711 42.1683 20.1548 43.9992 18.0659 43.9992C16.3144 43.9992 14.837 42.695 14.6197 40.957L12.2461 21.9681" stroke="#222222" stroke-width="2" stroke-linecap="round" stroke-linejoin="round"/>
<path d="M13 4C8.02944 4 4 8.02944 4 13C4 17.7167 7.62831 21.5859 12.2461 21.9689C12.4947 21.9895 12.7461 22 13 22C14.578 22 16.7395 21.8249 19.193 21.5438L31.5965 19.5219L44 17.5V8.5L28.5 6.25L13 4Z" stroke="#222222" stroke-width="2" stroke-linecap="round" stroke-linejoin="round"/>
<path d="M37 8.19922V17.7982" stroke="#222222" stroke-width="2" stroke-linecap="round" stroke-linejoin="round"/>
<path d="M43.9997 17.5L31.5962 19.5219" stroke="#222222" stroke-width="2" stroke-linecap="round" stroke-linejoin="round"/>
<path d="M44 8.5L28.5 6.25" stroke="#222222" stroke-width="2" stroke-linecap="round" stroke-linejoin="round"/>
<path d="M16 13C16 14.6569 14.6569 16 13 16C11.3431 16 10 14.6569 10 13C10 11.3431 11.3431 10 13 10C14.6569 10 16 11.3431 16 13Z" stroke="#222222" stroke-width="2" stroke-linecap="round" stroke-linejoin="round"/>
</svg>
