<svg width="18" height="13" viewBox="0 0 18 13" fill="none" xmlns="http://www.w3.org/2000/svg">
<path d="M7.19419 3.72051C7.51371 3.38205 8.03175 3.38205 8.35127 3.72051L9.81818 5.27435L11.2851 3.72051C11.6046 3.38205 12.1227 3.38205 12.4422 3.72051C12.7617 4.05896 12.7617 4.60771 12.4422 4.94616L10.9753 6.5L12.4422 8.05384C12.7617 8.39229 12.7617 8.94104 12.4422 9.27949C12.1227 9.61795 11.6046 9.61795 11.2851 9.27949L9.81818 7.72565L8.35127 9.27949C8.03175 9.61795 7.51371 9.61795 7.19419 9.27949C6.87467 8.94104 6.87467 8.39229 7.19419 8.05384L8.6611 6.5L7.19419 4.94616C6.87467 4.60771 6.87467 4.05896 7.19419 3.72051Z" fill="#222222"/>
<path fill-rule="evenodd" clip-rule="evenodd" d="M4.26058 0.338251C4.41546 0.124977 4.65507 0 4.90909 0H17.1818C17.6337 0 18 0.38802 18 0.866667V12.1333C18 12.612 17.6337 13 17.1818 13H4.90909C4.65507 13 4.41546 12.875 4.26058 12.6617L0.169671 7.02842C-0.0565571 6.71689 -0.0565571 6.28311 0.169671 5.97158L4.26058 0.338251ZM5.31196 1.73333L1.85043 6.5L5.31196 11.2667H16.3636V1.73333H5.31196Z" fill="#222222"/>
</svg>
