<svg width="48" height="48" viewBox="0 0 48 48" fill="none" xmlns="http://www.w3.org/2000/svg">
<path d="M48 0H0V48H48V0Z" fill="white" fill-opacity="0.01"/>
<path d="M23.0351 21.036L30.9999 13.0712M23.0351 21.036C23.0351 21.036 22.3136 12.6873 26.9999 8.00098C31.6862 3.31469 40.0057 4.03607 40.0057 4.03607C40.0057 4.03607 40.6862 12.3147 35.9999 17.001C31.3136 21.6873 23.0351 21.036 23.0351 21.036Z" stroke="#222222" stroke-width="2" stroke-linecap="round" stroke-linejoin="round"/>
<path d="M22.9712 31.9725L16.0001 25.0014M22.9712 31.9725C22.9712 31.9725 23.8492 24.8448 20.0001 21.0014C16.151 17.158 9.03226 18.0303 9.03226 18.0303C9.03226 18.0303 8.15094 25.158 12.0001 29.0014C15.8492 32.8448 22.9712 31.9725 22.9712 31.9725Z" stroke="#222222" stroke-width="2" stroke-linecap="round" stroke-linejoin="round"/>
<path d="M23 4V44" stroke="#222222" stroke-width="2" stroke-linecap="round" stroke-linejoin="round"/>
</svg>
