<svg width="22" height="22" viewBox="0 0 22 22" fill="none" xmlns="http://www.w3.org/2000/svg">
<path fill-rule="evenodd" clip-rule="evenodd" d="M10.4343 3.49993C10.4343 1.56697 12.0819 0 14.1143 0C16.1467 0 17.7943 1.56697 17.7943 3.49993C17.7943 5.43287 16.1467 6.99985 14.1143 6.99985C12.0819 6.99985 10.4343 5.43287 10.4343 3.49993ZM14.1143 1.99996C13.2433 1.99996 12.5372 2.67152 12.5372 3.49993C12.5372 4.32832 13.2433 4.99989 14.1143 4.99989C14.9853 4.99989 15.6915 4.32832 15.6915 3.49993C15.6915 2.67152 14.9853 1.99996 14.1143 1.99996Z" fill="#808080"/>
<path fill-rule="evenodd" clip-rule="evenodd" d="M8.0313 8.5545C8.70103 8.66883 9.36287 8.81545 10.0143 8.99373L8.3303 11.9804L5.62817 15.7562C5.2571 16.2724 4.76254 16.844 4.26658 17.4095L4.14496 17.5481C3.7114 18.0417 3.26486 18.5501 2.98809 18.945C2.66598 19.4045 2.79654 20.0254 3.2797 20.3317C3.76286 20.6381 4.41566 20.5139 4.73776 20.0544C4.94793 19.7545 5.3217 19.3285 5.79414 18.79L5.88144 18.6905C6.36873 18.1349 6.92798 17.4918 7.36476 16.884L9.4636 13.9513L12.5728 16.2936L12.5754 16.2985C12.5765 16.3008 12.5778 16.3036 12.5792 16.307L14.331 21.3154C14.5143 21.8394 15.1096 22.1229 15.6606 21.9486C16.2116 21.7743 16.5097 21.2081 16.3264 20.6841L14.5705 15.6642L14.5648 15.6484C14.4395 15.3091 14.2163 14.9763 13.875 14.7232L10.5727 12.2354L12.0259 9.65807C12.8776 9.98956 13.7053 10.3783 14.5027 10.8227L16.2231 11.7784L16.2379 11.7865C16.5692 11.9637 16.9369 12.0499 17.3001 12.0499L17.3153 12.0498L20.9637 11.9998C21.5443 11.9919 22.0083 11.5378 21.9999 10.9856C21.9915 10.4333 21.5141 9.99214 20.9334 10.0001L17.2969 10.0499C17.2852 10.0495 17.2764 10.0469 17.2711 10.0445L15.5652 9.09684C13.349 7.86175 10.9241 7.01626 8.40152 6.58578L6.7063 6.30038C6.27095 6.22709 5.83389 6.42065 5.61268 6.78472L4.78374 8.14898L3.94302 7.68734C3.44013 7.4112 2.79709 7.57507 2.50675 8.05335L0.14104 11.9504C-0.149303 12.4287 0.0229992 13.0402 0.525888 13.3164L3.87617 15.156C4.37906 15.4322 5.0221 15.2683 5.31244 14.79L7.67815 10.893C7.96849 10.4147 7.79619 9.80312 7.2933 9.52698L6.60486 9.14896L7.06491 8.39181L8.03013 8.55431L8.0313 8.5545ZM2.48787 12.0844L3.80215 9.91934L5.33132 10.759L4.01704 12.924L2.48787 12.0844Z" fill="#808080"/>
</svg>
