<svg width="48" height="48" viewBox="0 0 48 48" fill="none" xmlns="http://www.w3.org/2000/svg">
<path d="M24 44.0002C35.0457 44.0002 44 36.6129 44 27.5002C44 21.0582 39.5252 15.7016 33 12.9844L29.5 14.5002L30 20.0002L23.5 18.0002L17 20.0002V14.5002L14 12.9844C8.02199 15.8373 4 21.3929 4 27.5002C4 36.6129 12.9543 44.0002 24 44.0002Z" stroke="#222222" stroke-width="2" stroke-linecap="round" stroke-linejoin="round"/>
<path d="M23.5 4L27.3088 9.11672L36 9.90983L29.6628 14.4833L31.5 21L23.5 18L15.5 21L17.3371 14.4833L11 9.90983L19.6911 9.11672L23.5 4Z" stroke="#222222" stroke-width="2" stroke-linecap="round" stroke-linejoin="round"/>
</svg>
