<svg width="48" height="48" viewBox="0 0 48 48" fill="none" xmlns="http://www.w3.org/2000/svg">
<path d="M19 30V33C19 36.866 15.866 40 12 40C8.13401 40 5 36.866 5 33V19" stroke="#222222" stroke-width="2" stroke-linecap="round" stroke-linejoin="round"/>
<path d="M29 30V33C29 36.866 32.134 40 36 40C39.866 40 43 36.866 43 33V19" stroke="#222222" stroke-width="2" stroke-linecap="round" stroke-linejoin="round"/>
<path d="M32 8H16C9.92487 8 5 12.9249 5 19C5 25.0751 9.92487 30 16 30H32C38.0751 30 43 25.0751 43 19C43 12.9249 38.0751 8 32 8Z" stroke="#222222" stroke-width="2"/>
<path d="M21 19H13" stroke="#222222" stroke-width="2" stroke-linecap="round" stroke-linejoin="round"/>
<path d="M17 15V23" stroke="#222222" stroke-width="2" stroke-linecap="round" stroke-linejoin="round"/>
<path d="M36 17C36 15.8954 35.1046 15 34 15C32.8954 15 32 15.8954 32 17C32 18.1046 32.8954 19 34 19C35.1046 19 36 18.1046 36 17Z" fill="#222222"/>
<path d="M32 22C32 20.8954 31.1046 20 30 20C28.8954 20 28 20.8954 28 22C28 23.1046 28.8954 24 30 24C31.1046 24 32 23.1046 32 22Z" fill="#222222"/>
</svg>
