<svg width="48" height="48" viewBox="0 0 48 48" fill="none" xmlns="http://www.w3.org/2000/svg">
<path d="M48 0H0V48H48V0Z" fill="white" fill-opacity="0.01"/>
<path d="M19.6001 34.5H28.4001" stroke="#222222" stroke-width="2" stroke-linecap="round"/>
<path d="M2.30273 27.3909L9.95784 9.5618L14.9491 7" stroke="#222222" stroke-width="2" stroke-linecap="round" stroke-linejoin="round"/>
<path d="M45.8045 27.6333L38.0499 9.5618L33.0586 7" stroke="#222222" stroke-width="2" stroke-linecap="round" stroke-linejoin="round"/>
<path fill-rule="evenodd" clip-rule="evenodd" d="M3.40063 26.8008H18.717C19.4317 26.8008 20.0111 27.3802 20.0111 28.0949C20.0111 28.129 20.0098 28.1631 20.0071 28.1971L19.0797 39.9088C19.0264 40.5818 18.4647 41.1008 17.7896 41.1008H4.32803C3.65293 41.1008 3.09124 40.5818 3.03795 39.9088L2.11055 28.1971C2.05413 27.4846 2.58598 26.8613 3.29847 26.8048C3.33246 26.8022 3.36654 26.8008 3.40063 26.8008Z" stroke="#222222" stroke-width="2"/>
<path fill-rule="evenodd" clip-rule="evenodd" d="M29.283 26.8008H44.5994C45.3141 26.8008 45.8935 27.3802 45.8935 28.0949C45.8935 28.129 45.8921 28.1631 45.8895 28.1971L44.962 39.9088C44.9088 40.5818 44.3471 41.1008 43.672 41.1008H30.2104C29.5353 41.1008 28.9736 40.5818 28.9203 39.9088L27.9929 28.1971C27.9365 27.4846 28.4684 26.8613 29.1809 26.8048C29.2148 26.8022 29.2489 26.8008 29.283 26.8008Z" stroke="#222222" stroke-width="2"/>
</svg>
