<svg width="16" height="17" viewBox="0 0 16 17" fill="none" xmlns="http://www.w3.org/2000/svg">
<path d="M8.8 11.2032H4.00001C3.78783 11.2032 3.58435 11.2875 3.43432 11.4375C3.28429 11.5875 3.20001 11.791 3.20001 12.0032C3.20001 12.2153 3.28429 12.4188 3.43432 12.5689C3.58435 12.7189 3.78783 12.8032 4.00001 12.8032H8.8C9.01218 12.8032 9.21566 12.7189 9.36569 12.5689C9.51572 12.4188 9.6 12.2153 9.6 12.0032C9.6 11.791 9.51572 11.5875 9.36569 11.4375C9.21566 11.2875 9.01218 11.2032 8.8 11.2032ZM5.6 6.40318H7.2C7.41218 6.40318 7.61566 6.31889 7.76569 6.16886C7.91572 6.01883 8 5.81535 8 5.60318C8 5.391 7.91572 5.18752 7.76569 5.03749C7.61566 4.88746 7.41218 4.80318 7.2 4.80318H5.6C5.38783 4.80318 5.18435 4.88746 5.03432 5.03749C4.88429 5.18752 4.8 5.391 4.8 5.60318C4.8 5.81535 4.88429 6.01883 5.03432 6.16886C5.18435 6.31889 5.38783 6.40318 5.6 6.40318ZM15.2 8.00318H12.8V0.803179C12.8006 0.662211 12.7639 0.523598 12.6936 0.401376C12.6234 0.279154 12.5221 0.177663 12.4 0.10718C12.2784 0.0369651 12.1404 0 12 0C11.8596 0 11.7216 0.0369651 11.6 0.10718L9.2 1.48318L6.8 0.10718C6.67839 0.0369651 6.54043 0 6.4 0C6.25957 0 6.12162 0.0369651 6 0.10718L3.60001 1.48318L1.20001 0.10718C1.07839 0.0369651 0.940435 0 0.800006 0C0.659577 0 0.521621 0.0369651 0.400006 0.10718C0.277923 0.177663 0.176631 0.279154 0.106389 0.401376C0.0361462 0.523598 -0.000553347 0.662211 6.3063e-06 0.803179V13.6032C6.3063e-06 14.2397 0.252863 14.8501 0.70295 15.3002C1.15304 15.7503 1.76349 16.0032 2.40001 16.0032H13.6C14.2365 16.0032 14.847 15.7503 15.2971 15.3002C15.7471 14.8501 16 14.2397 16 13.6032V8.80318C16 8.591 15.9157 8.38752 15.7657 8.23749C15.6157 8.08746 15.4122 8.00318 15.2 8.00318ZM2.40001 14.4032C2.18783 14.4032 1.98435 14.3189 1.83432 14.1689C1.68429 14.0188 1.60001 13.8153 1.60001 13.6032V2.18718L3.20001 3.09918C3.32348 3.16367 3.46071 3.19735 3.60001 3.19735C3.7393 3.19735 3.87653 3.16367 4.00001 3.09918L6.4 1.72318L8.8 3.09918C8.92347 3.16367 9.06071 3.19735 9.2 3.19735C9.3393 3.19735 9.47653 3.16367 9.6 3.09918L11.2 2.18718V13.6032C11.2022 13.8761 11.2509 14.1466 11.344 14.4032H2.40001ZM14.4 13.6032C14.4 13.8153 14.3157 14.0188 14.1657 14.1689C14.0157 14.3189 13.8122 14.4032 13.6 14.4032C13.3878 14.4032 13.1843 14.3189 13.0343 14.1689C12.8843 14.0188 12.8 13.8153 12.8 13.6032V9.60318H14.4V13.6032ZM8.8 8.00318H4.00001C3.78783 8.00318 3.58435 8.08746 3.43432 8.23749C3.28429 8.38752 3.20001 8.591 3.20001 8.80318C3.20001 9.01535 3.28429 9.21883 3.43432 9.36886C3.58435 9.51889 3.78783 9.60318 4.00001 9.60318H8.8C9.01218 9.60318 9.21566 9.51889 9.36569 9.36886C9.51572 9.21883 9.6 9.01535 9.6 8.80318C9.6 8.591 9.51572 8.38752 9.36569 8.23749C9.21566 8.08746 9.01218 8.00318 8.8 8.00318Z" fill="#222222"/>
</svg>
