<svg width="48" height="48" viewBox="0 0 48 48" fill="none" xmlns="http://www.w3.org/2000/svg">
<path d="M48 0H0V48H48V0Z" fill="white" fill-opacity="0.01"/>
<path d="M38 4H10C8.89543 4 8 4.89543 8 6V42C8 43.1046 8.89543 44 10 44H38C39.1046 44 40 43.1046 40 42V6C40 4.89543 39.1046 4 38 4Z" stroke="#222222" stroke-width="2"/>
<path d="M8 15.5H40" stroke="#222222" stroke-width="2" stroke-linecap="round" stroke-linejoin="round"/>
<path d="M28 12C29.1046 12 30 11.1046 30 10C30 8.89543 29.1046 8 28 8C26.8954 8 26 8.89543 26 10C26 11.1046 26.8954 12 28 12Z" fill="#222222"/>
<path d="M34 12C35.1046 12 36 11.1046 36 10C36 8.89543 35.1046 8 34 8C32.8954 8 32 8.89543 32 10C32 11.1046 32.8954 12 34 12Z" fill="#222222"/>
<path d="M24 37C27.866 37 31 33.866 31 30C31 26.134 27.866 23 24 23C20.134 23 17 26.134 17 30C17 33.866 20.134 37 24 37Z" stroke="#222222" stroke-width="2"/>
</svg>
