<svg width="48" height="48" viewBox="0 0 48 48" fill="none" xmlns="http://www.w3.org/2000/svg">
<path d="M15.3809 32.8468C9.72359 31.4322 0.531521 34.968 9.72373 38.5034C13.2596 47.6961 16.7948 38.5034 15.3809 32.8468Z" stroke="#333333" stroke-width="2" stroke-linecap="round" stroke-linejoin="round"/>
<path d="M22.4823 10.2501C17.5789 10.237 11.2504 11.787 10.4533 13.978C9.87552 15.5663 12.878 17.6793 16.7036 18.7958" stroke="#333333" stroke-width="2" stroke-linecap="round" stroke-linejoin="round"/>
<path d="M37.9776 25.7422C37.9907 30.6456 36.4407 36.9742 34.2497 37.7712C32.6614 38.349 30.5484 35.3465 29.4319 31.5209" stroke="#333333" stroke-width="2" stroke-linecap="round" stroke-linejoin="round"/>
<path d="M37.9994 25.7663C44.6626 19.7015 40.125 8.09286 40.125 8.09286C40.125 8.09286 28.108 4.5612 22.4512 10.2181C16.7943 15.8749 15.3801 32.8455 15.3801 32.8455C15.3801 32.8455 31.3363 31.8311 37.9994 25.7663Z" stroke="#333333" stroke-width="2" stroke-linecap="round" stroke-linejoin="round"/>
<path d="M38.0075 25.7751C38.0075 25.7751 31.29 24.7144 27.4009 20.8253C23.5118 16.9362 22.4512 10.2188 22.4512 10.2188" stroke="#333333" stroke-width="2" stroke-linecap="round" stroke-linejoin="round"/>
<path d="M32.3514 15.8755C33.1325 16.6565 34.3988 16.6565 35.1798 15.8755C35.9609 15.0944 35.9609 13.8281 35.1798 13.047C34.3988 12.266 33.1325 12.266 32.3514 13.047C31.5704 13.8281 31.5704 15.0944 32.3514 15.8755Z" fill="#333333"/>
<path d="M40.9998 20.9453C40.4591 22.705 39.5215 24.3799 37.9993 25.7654C36.3518 27.2648 34.1363 28.4556 31.7344 29.3986" stroke="#333333" stroke-width="2" stroke-linecap="round" stroke-linejoin="round"/>
<path d="M27.0003 7.65625C25.3027 8.14436 23.7177 8.95023 22.4514 10.2166C21.2666 11.4014 20.2679 13.0824 19.4294 14.9999" stroke="#333333" stroke-width="2" stroke-linecap="round" stroke-linejoin="round"/>
</svg>
