<svg width="48" height="48" viewBox="0 0 48 48" fill="none" xmlns="http://www.w3.org/2000/svg">
<path d="M6.57253 19.5747L4.40757 12.3582C4.1635 11.5446 4.45462 10.6619 5.17201 10.2071C8.05748 8.37793 14.6414 5 24.0001 5C33.3428 5 39.8 8.36639 42.759 10.1977C43.5068 10.6605 43.8275 11.5754 43.5748 12.4177L41.4277 19.5747C41.1739 20.4207 40.3953 21 39.512 21H36.0001C34.8955 21 34.0001 21.8911 34.0001 22.9957V33.0019C34.0001 34.1065 33.095 35.0132 32.0274 35.2966C30.7284 35.6415 29.0753 36.3873 28.0001 38C26.0001 41 26.0001 44 26.0001 44H22.0001C22.0001 44 22.0001 41 20.0001 38C18.9249 36.3873 17.2718 35.6415 15.9728 35.2966C14.9052 35.0132 14.0001 34.1065 14.0001 33.0019V22.9957C14.0001 21.8911 13.1047 21 12.0001 21H8.48818C7.60496 21 6.82632 20.4207 6.57253 19.5747Z" stroke="#222222" stroke-width="2" stroke-linecap="round" stroke-linejoin="round"/>
<path d="M29.811 5.5C29.9344 5.97943 30 6.48205 30 7C30 10.3137 27.3137 13 24 13C20.6863 13 18 10.3137 18 7C18 6.48205 18.0656 5.97943 18.189 5.5" stroke="#222222" stroke-width="2" stroke-linecap="round" stroke-linejoin="round"/>
<path d="M13.5 6.49375C16.4326 5.63028 19.9575 5 24 5C28.0425 5 31.5449 5.63028 34.4573 6.49375" stroke="#222222" stroke-width="2" stroke-linecap="round" stroke-linejoin="round"/>
</svg>
