<svg width="22" height="22" viewBox="0 0 22 22" fill="none" xmlns="http://www.w3.org/2000/svg">
<path fill-rule="evenodd" clip-rule="evenodd" d="M10.2692 0.252591C10.686 -0.0841969 11.314 -0.0841969 11.7308 0.252591L21.6308 8.25259C21.8656 8.44236 22 8.71436 22 9V21C22 21.5523 21.5075 22 20.9 22H1.1C0.492487 22 0 21.5523 0 21V9C0 8.71436 0.134363 8.44236 0.3692 8.25259L10.2692 0.252591ZM9.9 20H12.1V16H9.9V20ZM14.3 20V15C14.3 14.4477 13.8075 14 13.2 14H8.8C8.19249 14 7.7 14.4477 7.7 15V20H6.05V12H15.95V20H14.3ZM19.8 20H18.15V12H19.8V20ZM19.8 10H18.15V8.11573L19.8 9.44907V10ZM15.95 10V6.33795L11 2.33795L6.05 6.33795V10H15.95ZM3.85 12V20H2.2V12H3.85ZM3.85 8.11573V10H2.2V9.44907L3.85 8.11573Z" fill="#808080"/>
</svg>
