<svg width="48" height="48" viewBox="0 0 48 48" fill="none" xmlns="http://www.w3.org/2000/svg">
<path d="M48 0H0V48H48V0Z" fill="white" fill-opacity="0.01"/>
<path fill-rule="evenodd" clip-rule="evenodd" d="M22.2187 7.37891L33.8868 16.6221L36.1778 24.0003L25.2625 26.0857L12.5889 14.5317L15.281 9.00197L22.2187 7.37891Z" stroke="#222222" stroke-width="2" stroke-linejoin="round"/>
<path d="M15.2808 9L26.4862 18.6001" stroke="#222222" stroke-width="2" stroke-linecap="round"/>
<path d="M25.2627 26.0847L26.4866 18.1319L33.8869 16.6211" stroke="#222222" stroke-width="2" stroke-linecap="round" stroke-linejoin="round"/>
<path d="M24.993 31.0209L27.2792 38.1013L15.601 40.3766L4 29.0121L6.57052 22.6234L12.0285 21.3516" stroke="#222222" stroke-width="2" stroke-linecap="round" stroke-linejoin="round"/>
<path d="M6.5708 22.625L17.2842 32.7577" stroke="#222222" stroke-width="2" stroke-linecap="round"/>
<path d="M15.6011 39.8643L17.4865 32.1319L24.9908 31.043" stroke="#222222" stroke-width="2" stroke-linecap="round" stroke-linejoin="round"/>
<path fill-rule="evenodd" clip-rule="evenodd" d="M34.8868 29.6077L34 36.7999L43.236 34.9985L41.2813 28.1875L34.8868 29.6077Z" stroke="#222222" stroke-width="2" stroke-linejoin="round"/>
</svg>
