<svg width="48" height="48" viewBox="0 0 48 48" fill="none" xmlns="http://www.w3.org/2000/svg">
<path d="M5 17.0008C5 12.0008 6 2.00076 17.0008 6.00075C17.9464 9.78321 15 17.0008 5 17.0008Z" stroke="#222222" stroke-width="2" stroke-linecap="round" stroke-linejoin="round"/>
<path d="M43.0001 17.0008C43.0007 12.0008 42.0001 2.00076 31.0001 6.00075C30.0545 9.78321 32.9995 17.0008 43.0001 17.0008Z" stroke="#222222" stroke-width="2" stroke-linecap="round" stroke-linejoin="round"/>
<path d="M30 22H18C12.4772 22 8 26.4772 8 32C8 37.5228 12.4772 42 18 42H30C35.5228 42 40 37.5228 40 32C40 26.4772 35.5228 22 30 22Z" stroke="#222222" stroke-width="2" stroke-linecap="round" stroke-linejoin="round"/>
<path d="M27 22V18" stroke="#222222" stroke-width="2" stroke-linecap="round" stroke-linejoin="round"/>
<path d="M21 22V18" stroke="#222222" stroke-width="2" stroke-linecap="round" stroke-linejoin="round"/>
<path d="M43 17C44 20 44 26 40 29" stroke="#222222" stroke-width="2" stroke-linecap="round" stroke-linejoin="round"/>
<path d="M5 17C4 20 5 25 8 29" stroke="#222222" stroke-width="2" stroke-linecap="round" stroke-linejoin="round"/>
<path d="M30 42H44L40 33" stroke="#222222" stroke-width="2" stroke-linecap="round" stroke-linejoin="round"/>
<path d="M18 42H4L8 33" stroke="#222222" stroke-width="2" stroke-linecap="round" stroke-linejoin="round"/>
</svg>
