<svg width="48" height="48" viewBox="0 0 48 48" fill="none" xmlns="http://www.w3.org/2000/svg">
<path d="M44 24C44 35.0457 35.0457 44 24 44C12.9543 44 4 35.0457 4 24C4 12.9543 12.9543 4 24 4" stroke="#222222" stroke-width="2" stroke-linecap="round" stroke-linejoin="round"/>
<path d="M38 9.47266L38.343 10.5284H39.4531L38.555 11.1808L38.8981 12.2366L38 11.5841L37.1019 12.2366L37.445 11.1808L36.5469 10.5284H37.657L38 9.47266Z" stroke="#222222" stroke-width="2"/>
<path d="M30 19C30 15.6863 27.3137 13 24 13C20.6863 13 18 15.6863 18 19V31C18 34.3137 20.6863 37 24 37C27.3137 37 30 34.3137 30 31V19Z" stroke="#222222" stroke-width="2" stroke-linecap="round" stroke-linejoin="round"/>
<path d="M18 25C16 25 13 27.1176 13 31C13 34.8824 13 38.8072 13 40.7842" stroke="#222222" stroke-width="2" stroke-linecap="round" stroke-linejoin="round"/>
<path d="M30 25C32 25 35 27.1176 35 31C35 34.8824 35 38.5229 35 40.5" stroke="#222222" stroke-width="2" stroke-linecap="round" stroke-linejoin="round"/>
</svg>
