<svg width="48" height="48" viewBox="0 0 48 48" fill="none" xmlns="http://www.w3.org/2000/svg">
<path d="M48 0H0V48H48V0Z" fill="white" fill-opacity="0.01"/>
<path fill-rule="evenodd" clip-rule="evenodd" d="M24 43C24.8653 43 26.8503 43 29.9551 43C30.0381 40.2631 30.4393 38.7582 31.1586 38.4852C38.6685 35.6357 44 28.4339 44 20H4C4 28.2514 9.10319 35.3234 16.3568 38.2941C17.1151 38.6047 17.6815 40.1733 18.056 43C21.0857 43 23.067 43 24 43Z" stroke="#222222" stroke-width="2" stroke-linejoin="round"/>
<path d="M14.4434 27.0234C14.803 28.2113 15.2786 29.192 15.8702 29.9656C16.4484 30.7219 17.1619 31.4233 18.0104 32.0698" stroke="#222222" stroke-width="2" stroke-linecap="round"/>
<path d="M25.2139 20.0269C28.9697 12.2752 31.177 7.7057 31.8358 6.31823C32.8851 4.1084 35.0156 3.57663 36.9808 4.41618C38.9459 5.25572 39.7411 7.65877 38.9162 9.33359C38.4068 10.368 36.6766 13.925 33.7258 20.0045" stroke="#222222" stroke-width="2" stroke-linecap="round"/>
</svg>
