<svg width="48" height="48" viewBox="0 0 48 48" fill="none" xmlns="http://www.w3.org/2000/svg">
<path d="M48 0H0V48H48V0Z" fill="white" fill-opacity="0.01"/>
<path d="M19.036 44C18.0561 40.8044 16.5778 38.4221 14.6011 36.8531C11.636 34.4996 6.92483 35.9623 5.18458 33.5348C3.44433 31.1072 6.40382 26.643 7.44234 24.0089C8.48086 21.3749 3.46179 20.4435 4.04776 19.6957C4.43842 19.1972 6.97471 17.7586 11.6567 15.38C12.987 7.79332 17.9008 4 26.3982 4C39.1441 4 44 14.806 44 21.6789C44 28.5519 38.1201 35.9562 29.7441 37.5527C28.9951 38.6435 30.0754 40.7926 32.9848 44" stroke="#222222" stroke-width="2" stroke-linecap="round" stroke-linejoin="round"/>
<path fill-rule="evenodd" clip-rule="evenodd" d="M19.4997 14.5008C18.8464 17.035 19.0408 18.8146 20.0829 19.8393C21.125 20.8641 22.9011 21.5342 25.4112 21.8497C24.8417 25.1184 25.5361 26.6519 27.4942 26.4501C29.4524 26.2483 30.6289 25.4346 31.0239 24.0091C34.0842 24.8692 35.7428 24.1494 35.9997 21.8497C36.3852 18.4001 34.525 15.6483 33.7624 15.6483C32.9997 15.6483 31.0239 15.5555 31.0239 14.5008C31.0239 13.446 28.7159 12.8501 26.6329 12.8501C24.5499 12.8501 25.8035 11.446 22.9432 12.0008C21.0363 12.3706 19.8885 13.2039 19.4997 14.5008Z" stroke="#222222" stroke-width="2" stroke-linejoin="round"/>
<path d="M30.5002 25.5C29.4833 26.131 28.0878 27.1803 27.5002 28C26.0313 30.0495 24.8398 31.2974 24.5791 32.6081" stroke="#222222" stroke-width="2" stroke-linecap="round"/>
</svg>
