<svg width="48" height="48" viewBox="0 0 48 48" fill="none" xmlns="http://www.w3.org/2000/svg">
<path d="M48 0H0V48H48V0Z" fill="white" fill-opacity="0.01"/>
<path d="M42 18H6C4.89543 18 4 18.8954 4 20V40C4 41.1046 4.89543 42 6 42H42C43.1046 42 44 41.1046 44 40V20C44 18.8954 43.1046 18 42 18Z" stroke="#222222" stroke-width="2" stroke-linejoin="round"/>
<path d="M14 26C15.1046 26 16 25.1046 16 24C16 22.8954 15.1046 22 14 22C12.8954 22 12 22.8954 12 24C12 25.1046 12.8954 26 14 26Z" fill="#222222"/>
<path d="M16 32C17.1046 32 18 31.1046 18 30C18 28.8954 17.1046 28 16 28C14.8954 28 14 28.8954 14 30C14 31.1046 14.8954 32 16 32Z" fill="#222222"/>
<path d="M10 32C11.1046 32 12 31.1046 12 30C12 28.8954 11.1046 28 10 28C8.89543 28 8 28.8954 8 30C8 31.1046 8.89543 32 10 32Z" fill="#222222"/>
<path d="M20 26C21.1046 26 22 25.1046 22 24C22 22.8954 21.1046 22 20 22C18.8954 22 18 22.8954 18 24C18 25.1046 18.8954 26 20 26Z" fill="#222222"/>
<path d="M22 32C23.1046 32 24 31.1046 24 30C24 28.8954 23.1046 28 22 28C20.8954 28 20 28.8954 20 30C20 31.1046 20.8954 32 22 32Z" fill="#222222"/>
<path d="M26 26C27.1046 26 28 25.1046 28 24C28 22.8954 27.1046 22 26 22C24.8954 22 24 22.8954 24 24C24 25.1046 24.8954 26 26 26Z" fill="#222222"/>
<path d="M28 32C29.1046 32 30 31.1046 30 30C30 28.8954 29.1046 28 28 28C26.8954 28 26 28.8954 26 30C26 31.1046 26.8954 32 28 32Z" fill="#222222"/>
<path d="M32 26C33.1046 26 34 25.1046 34 24C34 22.8954 33.1046 22 32 22C30.8954 22 30 22.8954 30 24C30 25.1046 30.8954 26 32 26Z" fill="#222222"/>
<path d="M34 32C35.1046 32 36 31.1046 36 30C36 28.8954 35.1046 28 34 28C32.8954 28 32 28.8954 32 30C32 31.1046 32.8954 32 34 32Z" fill="#222222"/>
<path d="M38 26C39.1046 26 40 25.1046 40 24C40 22.8954 39.1046 22 38 22C36.8954 22 36 22.8954 36 24C36 25.1046 36.8954 26 38 26Z" fill="#222222"/>
<path d="M17 36H31" stroke="#222222" stroke-width="2" stroke-linecap="round" stroke-linejoin="round"/>
<path d="M33 18V13.125C33 12.5727 33.4477 12.125 34 12.125H39C39.5523 12.125 40 11.6773 40 11.125V6" stroke="#222222" stroke-width="2" stroke-linecap="round" stroke-linejoin="round"/>
</svg>
