<svg width="52" height="46" viewBox="0 0 52 46" fill="none" xmlns="http://www.w3.org/2000/svg">
<path d="M13.898 5.34965C13.7275 2.9881 13.5039 1.5806 13.2216 1.13302C12.9392 0.679555 11.9863 1.38625 10.3569 3.24134C7.15697 3.24134 5.24524 3.94214 4.6276 5.34965C3.70409 7.45798 2.94527 7.88201 2.52175 8.13524C2.09822 8.38848 0.921762 9.05985 1.00411 10.0728C1.08647 11.0857 1.76294 13.8713 3.95702 14.4602C6.14522 15.0491 6.14521 17.8347 5.63933 19.2658C5.13346 20.7027 4.70995 27.281 6.90403 30.9087C8.36283 33.3291 7.07462 36.4151 6.90403 41.8743C6.17463 42.7165 5.25111 44.2123 5.63933 44.6599C6.03345 45.1134 10.1628 45.1134 12.6333 44.6599L14.3784 35.0957L15.7163 36.407C17.0045 39.1632 18.1097 41.1441 19.1215 41.8743L18.4215 42.7636C17.7156 43.6528 18.345 44.9603 19.4803 44.9603H27.8978C30.0095 44.9603 31.8624 43.5233 32.3683 41.468C33.2389 37.9109 34.0742 32.4929 32.0977 29.3893C28.9802 24.5013 17.4333 20.7027 13.898 5.34965Z" stroke="#222222" stroke-width="2" stroke-linecap="round" stroke-linejoin="round"/>
<path d="M20.4687 28.4629C16.5923 29.3875 14.9924 32.1201 15.6688 36.643" stroke="#222222" stroke-width="2" stroke-linecap="round" stroke-linejoin="round"/>
<path d="M33.3098 37.4457C38.9921 38.6058 37.1221 41.6526 41.1357 44.2753C47.8861 44.9017 49.1627 39.0298 50.5006 35.0957" stroke="#222222" stroke-width="2" stroke-linecap="round" stroke-linejoin="round"/>
<path d="M16.4336 12.4785L5.75732 16.5067" stroke="#222222" stroke-width="2" stroke-linejoin="round"/>
</svg>
