<svg width="20" height="14" viewBox="0 0 20 14" fill="none" xmlns="http://www.w3.org/2000/svg">
<path fill-rule="evenodd" clip-rule="evenodd" d="M8.29289 0.292893C8.68342 -0.0976311 9.31658 -0.0976311 9.70711 0.292893L15.7071 6.29289C15.9029 6.4887 16.0005 6.7455 16 7.00213C16 7.0028 16 7.00348 16 7.00415C16 7.30794 15.8645 7.58008 15.6507 7.76349L9.70711 13.7071C9.31658 14.0976 8.68342 14.0976 8.29289 13.7071C7.90237 13.3166 7.90237 12.6834 8.29289 12.2929L12.5816 8.00415H1C0.447715 8.00415 0 7.55644 0 7.00415C0 6.45187 0.447715 6.00415 1 6.00415H12.5899L8.29289 1.70711C7.90237 1.31658 7.90237 0.683417 8.29289 0.292893ZM19 1.49012e-08C19.5523 1.49012e-08 20 0.447715 20 1V13C20 13.5523 19.5523 14 19 14C18.4477 14 18 13.5523 18 13V1C18 0.447715 18.4477 1.49012e-08 19 1.49012e-08Z" fill="black" fill-opacity="0.85"/>
</svg>
