<svg width="12" height="16" viewBox="0 0 12 16" fill="none" xmlns="http://www.w3.org/2000/svg">
<path fill-rule="evenodd" clip-rule="evenodd" d="M3 6.09517C3 4.41204 4.34315 3.04759 6 3.04759C7.65685 3.04759 9 4.41204 9 6.09517C9 7.77831 7.65685 9.14276 6 9.14276C4.34315 9.14276 3 7.77831 3 6.09517ZM6 4.57138C5.17157 4.57138 4.5 5.25361 4.5 6.09517C4.5 6.93674 5.17157 7.61897 6 7.61897C6.82843 7.61897 7.5 6.93674 7.5 6.09517C7.5 5.25361 6.82843 4.57138 6 4.57138Z" fill="#222222"/>
<path fill-rule="evenodd" clip-rule="evenodd" d="M9.60993 10.9642C11.0616 9.8517 12 8.08476 12 6.09517C12 2.7289 9.31371 0 6 0C2.68629 0 0 2.7289 0 6.09517C0 8.08476 0.938385 9.8517 2.39007 10.9642L0.45418 14.8974C0.337935 15.1336 0.350358 15.414 0.487013 15.6387C0.623668 15.8633 0.865068 16 1.125 16H10.875C11.1349 16 11.3763 15.8633 11.513 15.6387C11.6496 15.414 11.6621 15.1336 11.5458 14.8974L9.60993 10.9642ZM6 1.52379C3.51472 1.52379 1.5 3.57047 1.5 6.09517C1.5 7.69725 2.31126 9.10684 3.53922 9.92313C3.59731 9.93642 3.65476 9.957 3.71041 9.98526C3.7968 10.0291 3.87121 10.0877 3.93218 10.1564C4.55132 10.4824 5.25449 10.6666 6 10.6666C6.74551 10.6666 7.44868 10.4824 8.06783 10.1564C8.1288 10.0877 8.2032 10.0291 8.28959 9.98526C8.34524 9.957 8.40269 9.93642 8.46078 9.92313C9.68874 9.10684 10.5 7.69725 10.5 6.09517C10.5 3.57047 8.48528 1.52379 6 1.52379ZM8.30668 11.7236C7.59656 12.0243 6.81737 12.1903 6 12.1903C5.18263 12.1903 4.40344 12.0243 3.69332 11.7236L2.33853 14.4762H9.66148L8.30668 11.7236Z" fill="#222222"/>
</svg>
