<svg width="20" height="20" viewBox="0 0 20 20" fill="none" xmlns="http://www.w3.org/2000/svg">
<path fill-rule="evenodd" clip-rule="evenodd" d="M17.407 14.3521L18.82 15.7639L14.582 20L13.168 18.5879L17.408 14.3521H17.407ZM16.468 13.4141L12.228 17.6489L10.816 16.2371L15.054 12.001L16.468 13.4141ZM3.75101 9.177L2.33701 7.76611L6.577 3.52905L7.989 4.94092L3.75101 9.177ZM5.65199 2.60596L1.414 6.84204L0 5.42993L4.24001 1.19409L5.65199 2.60596ZM7.282 14.1189L5.87 12.707L10.11 8.47095C10.977 9.33795 10.654 9.01706 11.522 9.88306L7.282 14.1189ZM14.071 3.95898L16.037 5.92407L13.482 6.51392L14.071 3.95898ZM13.111 8.64893L20 7.05908L12.935 0L11.345 6.88306L10.109 5.64697L3.04401 12.707L7.283 16.9431L14.348 9.88306L13.112 8.64795L13.111 8.64893Z" fill="#222222"/>
</svg>
