<svg width="48" height="48" viewBox="0 0 48 48" fill="none" xmlns="http://www.w3.org/2000/svg">
<path d="M30 18C26.4 20.6667 21.6 20.6667 18 18" stroke="#222222" stroke-width="2" stroke-linecap="round" stroke-linejoin="round"/>
<path d="M36 40L24 22L12 40" stroke="#222222" stroke-width="2" stroke-linecap="round" stroke-linejoin="round"/>
<path d="M30 15C30 17.7614 32.2386 20 35 20C37.7614 20 40 17.7614 40 15C40 12.2386 37.7614 10 35 10C32.2386 10 30 12.2386 30 15Z" stroke="#222222" stroke-width="2" stroke-linecap="round" stroke-linejoin="round"/>
<path d="M8 15C8 17.7614 10.2386 20 13 20C15.7614 20 18 17.7614 18 15C18 12.2386 15.7614 10 13 10C10.2386 10 8 12.2386 8 15Z" stroke="#222222" stroke-width="2" stroke-linecap="round" stroke-linejoin="round"/>
</svg>
