<svg width="22" height="22" viewBox="0 0 22 22" fill="none" xmlns="http://www.w3.org/2000/svg">
<path fill-rule="evenodd" clip-rule="evenodd" d="M0 1.1C0 0.492487 0.447715 0 1 0H21C21.5523 0 22 0.492487 22 1.1C22 1.70751 21.5523 2.2 21 2.2H20.5V16.5C20.5 17.1075 20.0523 17.6 19.5 17.6H13.4142L15.7071 20.1222C16.0976 20.5518 16.0976 21.2482 15.7071 21.6778C15.3166 22.1074 14.6834 22.1074 14.2929 21.6778L11 18.0556L7.70711 21.6778C7.31658 22.1074 6.68342 22.1074 6.29289 21.6778C5.90237 21.2482 5.90237 20.5518 6.29289 20.1222L8.58579 17.6H2.5C1.94772 17.6 1.5 17.1075 1.5 16.5V2.2H1C0.447715 2.2 0 1.70751 0 1.1ZM3.5 2.2V15.4H18.5V2.2H3.5ZM16.6898 4.73286C17.0808 5.16199 17.0814 5.85848 16.6913 6.2885L11.712 11.777C11.3246 12.204 10.6969 12.2082 10.3049 11.7864L8.78246 10.1483L6.66047 12.4267C6.26525 12.8511 5.63213 12.8427 5.24636 12.4079C4.86058 11.9732 4.86823 11.2768 5.26344 10.8524L8.08466 7.82317C8.47343 7.40574 9.09405 7.40609 9.48242 7.82396L10.9957 9.45213L15.2756 4.73446C15.6657 4.30445 16.2989 4.30373 16.6898 4.73286Z" fill="#808080"/>
</svg>
