<svg width="48" height="48" viewBox="0 0 48 48" fill="none" xmlns="http://www.w3.org/2000/svg">
<path d="M15 26.3137C15 26.3137 19.5962 25.9602 22.7782 22.7782C25.9601 19.5962 26.3137 15 26.3137 15L34.0657 27.1817C35.3205 29.1535 35.0374 31.7322 33.3848 33.3848C31.7322 35.0374 29.1535 35.3205 27.1817 34.0657L15 26.3137Z" stroke="#222222" stroke-width="2"/>
<path d="M15 26C21.0751 26 26 21.0751 26 15C26 8.92487 21.0751 4 15 4C8.92487 4 4 8.92487 4 15C4 21.0751 8.92487 26 15 26Z" stroke="#222222" stroke-width="2"/>
<path d="M5.65674 25.4552L25.4557 5.65625" stroke="#222222" stroke-width="2" stroke-linecap="round" stroke-linejoin="round"/>
<path d="M34 33L42 41H33" stroke="#222222" stroke-width="2" stroke-linecap="round" stroke-linejoin="round"/>
</svg>
