<svg width="48" height="48" viewBox="0 0 48 48" fill="none" xmlns="http://www.w3.org/2000/svg">
<path d="M18 23C19.6569 23 21 21.6568 21 20C21 18.3431 19.6569 17 18 17C16.3431 17 15 18.3431 15 20C15 21.6568 16.3431 23 18 23Z" stroke="#222222" stroke-width="2"/>
<path d="M30 23C31.6569 23 33 21.6568 33 20C33 18.3431 31.6569 17 30 17C28.3431 17 27 18.3431 27 20C27 21.6568 28.3431 23 30 23Z" stroke="#222222" stroke-width="2"/>
<path d="M24 35C26.7614 35 29 33.6568 29 32C29 30.3431 26.7614 29 24 29C21.2386 29 19 30.3431 19 32C19 33.6568 21.2386 35 24 35Z" stroke="#222222" stroke-width="2"/>
<path d="M11.2715 38.1406C12.9295 39.9828 14.9094 41.4673 17.1095 42.481C19.2318 43.4588 21.5589 43.9985 23.9994 43.9985C26.4399 43.9985 28.767 43.4588 30.8893 42.481C33.0894 41.4673 35.0693 39.9828 36.7273 38.1406" stroke="#222222" stroke-width="2" stroke-linecap="round"/>
<path d="M40.6348 31.6546C41.5148 29.2965 42.0005 26.711 42.0005 23.9993C42.0005 21.2876 41.5148 18.7018 40.6348 16.3438" stroke="#222222" stroke-width="2" stroke-linecap="round"/>
<path d="M7.36573 16.3438C6.48571 18.7018 6 21.2876 6 23.9993C6 26.711 6.48571 29.2965 7.36573 31.6546" stroke="#222222" stroke-width="2" stroke-linecap="round"/>
<path d="M36.7273 9.85787C35.0693 8.01564 33.0894 6.53113 30.8893 5.51747C28.767 4.53967 26.4399 4 23.9994 4C19.0288 4 14.5288 6.23858 11.2715 9.85787" stroke="#222222" stroke-width="2" stroke-linecap="round"/>
</svg>
