<svg width="22" height="22" viewBox="0 0 22 22" fill="none" xmlns="http://www.w3.org/2000/svg">
<path d="M3 22C2.48716 22 2.06449 21.614 2.00673 21.1166L2 21L2.00034 10.6612C1.79603 10.589 1.59573 10.5016 1.40111 10.3989L1.18478 10.277L0.485512 9.8575C0.184302 9.67678 0 9.35127 0 9V5C0 4.44772 0.447715 4 1 4L2 3.999V1C2 0.487164 2.38604 0.0644929 2.88338 0.00672776L3 0H19C19.5128 0 19.9355 0.38604 19.9933 0.883379L20 1V3.999L21 4C21.5128 4 21.9355 4.38604 21.9933 4.88338L22 5V9C22 9.35126 21.8157 9.67677 21.5145 9.85749L20.8153 10.277C20.5542 10.4337 20.2812 10.5616 20.0007 10.6609L20 21C20 21.5128 19.614 21.9355 19.1166 21.9933L19 22H3ZM16 10.166L15.8153 10.277C14.4614 11.0894 12.787 11.13 11.4011 10.3989L11.1848 10.277L11 10.166L10.8153 10.277C9.46142 11.0894 7.78698 11.13 6.40109 10.3989L6.18475 10.277L6 10.166L5.81525 10.277C5.2512 10.6155 4.63151 10.82 4.00021 10.8905L4 20H7.5V15C7.5 14.4872 7.88604 14.0645 8.38338 14.0067L8.5 14H13.5C14.0523 14 14.5 14.4477 14.5 15V20H18L18.0008 10.8906C17.3692 10.8202 16.7491 10.6157 16.1848 10.277L16 10.166ZM12.5 16H9.5V20H12.5V16ZM18.983 5.999L2 6V8.434L2.21377 8.56206C2.95269 9.00543 3.86354 9.03498 4.6254 8.65073L4.78625 8.56206L5.4855 8.14251C5.80219 7.9525 6.19781 7.9525 6.5145 8.14251L7.21375 8.56206C8.00547 9.0371 8.99453 9.0371 9.78625 8.56206L10.4855 8.14251C10.8022 7.9525 11.1978 7.9525 11.5145 8.14251L12.2138 8.56206C13.0055 9.0371 13.9945 9.0371 14.7863 8.56206L15.4855 8.14251C15.8022 7.9525 16.1978 7.9525 16.5145 8.14251L17.2138 8.56206C18.0055 9.0371 18.9945 9.0371 19.7863 8.56206L20 8.433V6L19.0173 5.99985C19.0116 5.99995 19.0058 6 19 6L18.983 5.999ZM18 2H4V3.999H18V2Z" fill="#222222"/>
</svg>
