<svg width="17" height="18" viewBox="0 0 17 18" fill="none" xmlns="http://www.w3.org/2000/svg">
<path fill-rule="evenodd" clip-rule="evenodd" d="M7.43725 1.69411L7.51526 1.75398C7.59905 1.81831 7.65492 1.91024 7.67199 2.01181L8.63995 7.76997C8.72677 8.28648 9.1915 8.66583 9.73629 8.66583C10.3082 8.66583 10.7865 8.24906 10.8416 7.70301L11.4159 2.00932C11.4272 1.89771 11.485 1.79528 11.5761 1.72532L11.6217 1.69037C11.6651 1.74691 11.6889 1.81564 11.6889 1.8867V7.17705C11.6889 7.24845 11.6952 7.33294 11.7161 7.42549C11.7492 7.57179 11.8572 7.98986 12.1128 8.43092C12.3569 8.852 12.7862 9.37854 13.4974 9.6333C13.5089 9.64379 13.5243 9.65878 13.5439 9.67939C13.6239 9.76348 13.7258 9.8918 13.8445 10.0622C14.0803 10.4006 14.3302 10.8293 14.5431 11.2194M7.43725 1.69411C7.40765 1.74311 7.39341 1.7999 7.39728 1.85749L7.77903 7.53446C7.82021 8.14722 7.31331 8.66583 6.67346 8.66583C6.20125 8.66583 5.78105 8.37865 5.62659 7.95069L4.0446 3.56569L4.76289 8.60527C4.80835 8.9242 4.65744 9.23958 4.37572 9.41439C4.10779 9.58064 3.76753 9.59121 3.49012 9.44509L2.8978 9.82396C2.3663 10.164 2.17188 10.8246 2.43956 11.3811L4.24933 15.1433C4.2543 15.1512 4.26818 15.1717 4.29624 15.2034C4.33332 15.2452 4.38939 15.2999 4.46936 15.363C4.62945 15.4895 4.87378 15.6411 5.22377 15.7871C5.92299 16.0788 7.02652 16.3406 8.66227 16.3406C10.241 16.3406 11.3451 15.9634 12.0386 15.6085C12.3876 15.4299 12.6369 15.2547 12.7928 15.131C12.8552 15.0814 12.9025 15.0402 12.9352 15.0104L14.5076 12.2948C14.7116 11.9424 14.7182 11.5403 14.5431 11.2194M13.6346 15.5109L14.2854 16.0573C14.3256 16.0131 14.3609 15.9651 14.3905 15.9138L16.0194 13.1007C16.4853 12.296 16.5401 11.3011 16.0752 10.4495C15.8518 10.0403 15.5687 9.55113 15.2824 9.14014C15.1402 8.93587 14.9838 8.73159 14.8217 8.56108C14.685 8.41725 14.4459 8.18901 14.1243 8.08614C13.9355 8.02575 13.767 7.87055 13.6243 7.62443C13.5082 7.42409 13.4452 7.22339 13.4184 7.12242V1.8867C13.4184 1.3588 13.1998 0.852532 12.8108 0.479269C12.2086 -0.0984736 11.25 -0.149427 10.585 0.360979L10.4958 0.429483C10.0398 0.779558 9.75071 1.29182 9.69444 1.8494L9.58273 2.95694L9.37945 1.7477C9.29403 1.23942 9.01462 0.779772 8.59567 0.458204L8.44845 0.345206C7.79517 -0.156234 6.85342 -0.106172 6.26185 0.461386C5.84901 0.857545 5.63377 1.40516 5.67136 1.96431L5.75711 3.23949L5.48311 2.48004C5.35417 2.12262 5.11675 1.81042 4.80149 1.58352L4.74394 1.5421C4.06635 1.05452 3.10498 1.18621 2.59678 1.83637C2.30194 2.21363 2.17381 2.68727 2.24039 3.15457L2.90763 7.83588C2.85767 7.85953 2.80895 7.88644 2.76178 7.91661L1.93842 8.44326C0.698296 9.23655 0.244631 10.778 0.86923 12.0765L2.68857 15.8586C2.69235 15.8664 2.69626 15.8742 2.70029 15.882C2.96974 16.399 3.60518 16.9214 4.53417 17.3089C5.49239 17.7086 6.839 18 8.66227 18C10.5426 18 11.9246 17.5475 12.8525 17.0727C13.3142 16.8364 13.6595 16.5967 13.8954 16.4094C14.0134 16.3157 14.1043 16.2349 14.1689 16.174C14.2012 16.1436 14.227 16.1181 14.2463 16.0983C14.256 16.0885 14.2641 16.08 14.2706 16.0732L14.2792 16.064L14.2826 16.0603L14.2841 16.0587L14.2848 16.058C14.2848 16.058 14.2854 16.0573 13.6346 15.5109Z" fill="#999999"/>
</svg>
