<svg width="48" height="48" viewBox="0 0 48 48" fill="none" xmlns="http://www.w3.org/2000/svg">
<path d="M22.0001 14C22.0001 14 19.2999 19.2933 18.0001 26C16.7002 32.7067 17.0001 42 17.0001 42" stroke="#222222" stroke-width="2" stroke-linecap="round" stroke-linejoin="round"/>
<path d="M33.9531 23.2704C34.2987 23.4999 34.8457 23.6616 35.3815 23.7733C36.3129 23.9674 37.1736 23.3272 37.1493 22.3761C37.1042 20.6024 36.4123 17.701 32.8909 15.3626C29.5663 13.1548 26.2647 13.1246 24.1833 13.4419C22.9961 13.6229 22.5234 14.9201 23.2047 15.9091C23.8128 16.7919 24.5212 17.6835 25.0001 17.8538C26.0001 18.2093 27.2035 17.2719 28.0798 17.8538C28.9561 18.4357 28.6954 19.7789 29.5717 20.3608C30.448 20.9427 31.5849 20.1814 32.4612 20.7633C33.3374 21.3453 33.0768 22.6885 33.9531 23.2704Z" stroke="#222222" stroke-width="2" stroke-linecap="round" stroke-linejoin="round"/>
<path d="M20.0002 17.0003C20.858 16.7144 21.3888 15.7743 21.686 15.0218C21.9317 14.3999 21.7122 13.7133 21.1366 13.3731C19.8409 12.6072 17.0755 11.5592 12.7616 12.812C8.49746 14.0504 7.37104 16.8678 7.08516 18.5271C6.95139 19.3035 7.47999 20.0058 8.26298 20.0928C8.82388 20.1552 9.43919 20.1275 9.80688 19.8154C10.6138 19.1305 10.8323 18.2329 11.7338 17.9914C12.6353 17.7498 13.413 18.8491 14.3146 18.6076C15.2161 18.366 15.3399 17.0251 16.2414 16.7836C17.143 16.542 18.5002 17.5003 20.0002 17.0003Z" stroke="#222222" stroke-width="2" stroke-linecap="round" stroke-linejoin="round"/>
<path d="M26.9999 6.00021C24.4994 7.00021 21.9992 12.0002 22 14.0002L35.0008 8.00023C33.6201 5.60876 29.5004 5.00021 26.9999 6.00021Z" stroke="#222222" stroke-width="2" stroke-linecap="round" stroke-linejoin="round"/>
<path d="M20 4.9994C24 6.42102 23.3809 11.608 22.0002 13.9994L10.0005 5.92105C11.0005 3.99941 16 3.57778 20 4.9994Z" stroke="#222222" stroke-width="2" stroke-linecap="round" stroke-linejoin="round"/>
<path d="M26 35C34.2843 35 39 36.7909 39 39C39 41.2091 32.2843 43 24 43C15.7157 43 9 41.2091 9 39C9 38.4608 9.40006 37.9465 10.1253 37.4771" stroke="#222222" stroke-width="2" stroke-linecap="round"/>
</svg>
