<svg width="48" height="48" viewBox="0 0 48 48" fill="none" xmlns="http://www.w3.org/2000/svg">
<path d="M19 14V6C19 4.89543 19.8954 4 21 4H27C28.1046 4 29 4.89543 29 6V14" stroke="#222222" stroke-width="2" stroke-linecap="round"/>
<path d="M29 34V42C29 43.1046 28.1046 44 27 44H21C19.8954 44 19 43.1046 19 42V34" stroke="#222222" stroke-width="2" stroke-linecap="round"/>
<path d="M24 35C30.0751 35 35 30.0751 35 24C35 17.9249 30.0751 13 24 13C17.9249 13 13 17.9249 13 24C13 30.0751 17.9249 35 24 35Z" stroke="#222222" stroke-width="2"/>
<path d="M21 25H25" stroke="#222222" stroke-width="2" stroke-linecap="round" stroke-linejoin="round"/>
<path d="M25 21V25" stroke="#222222" stroke-width="2" stroke-linecap="round" stroke-linejoin="round"/>
</svg>
