<svg width="17" height="16" viewBox="0 0 17 16" fill="none" xmlns="http://www.w3.org/2000/svg">
<path d="M16.7543 14.6511L13.7881 11.7067C14.9395 10.2699 15.4971 8.44635 15.3462 6.61085C15.1954 4.77535 14.3475 3.06745 12.977 1.83834C11.6065 0.609226 9.81752 -0.0476794 7.9779 0.00269722C6.13829 0.0530739 4.38788 0.806903 3.08658 2.10918C1.78529 3.41146 1.03204 5.1632 0.981699 7.00421C0.931361 8.84523 1.58777 10.6356 2.81595 12.0071C4.04413 13.3787 5.75073 14.2272 7.58484 14.3781C9.41895 14.5291 11.2412 13.9711 12.6768 12.8188L15.619 15.7633C15.6933 15.8383 15.7818 15.8978 15.8792 15.9385C15.9766 15.9791 16.0811 16 16.1867 16C16.2922 16 16.3967 15.9791 16.4942 15.9385C16.5916 15.8978 16.68 15.8383 16.7543 15.7633C16.8985 15.6141 16.979 15.4147 16.979 15.2072C16.979 14.9997 16.8985 14.8003 16.7543 14.6511ZM8.19144 12.8188C7.08452 12.8188 6.00246 12.4903 5.08209 11.8749C4.16172 11.2595 3.44438 10.3847 3.02078 9.36129C2.59719 8.33786 2.48635 7.2117 2.7023 6.12523C2.91825 5.03875 3.45128 4.04076 4.23399 3.25746C5.0167 2.47416 6.01393 1.94072 7.09958 1.72461C8.18523 1.50849 9.31053 1.61941 10.3332 2.04333C11.3558 2.46725 12.2299 3.18514 12.8449 4.1062C13.4599 5.02727 13.7881 6.11015 13.7881 7.21791C13.7881 8.70337 13.1985 10.128 12.1489 11.1784C11.0993 12.2287 9.67577 12.8188 8.19144 12.8188ZM11.3895 6.41778H4.99334C4.78129 6.41778 4.57793 6.50208 4.42799 6.65213C4.27805 6.80219 4.19381 7.0057 4.19381 7.21791C4.19381 7.43012 4.27805 7.63364 4.42799 7.78369C4.57793 7.93374 4.78129 8.01804 4.99334 8.01804H11.3895C11.6016 8.01804 11.8049 7.93374 11.9549 7.78369C12.1048 7.63364 12.1891 7.43012 12.1891 7.21791C12.1891 7.0057 12.1048 6.80219 11.9549 6.65213C11.8049 6.50208 11.6016 6.41778 11.3895 6.41778Z" fill="#222222"/>
</svg>
