<svg width="16" height="16" viewBox="0 0 16 16" fill="none" xmlns="http://www.w3.org/2000/svg">
<path d="M10.4105 6.41778H8.01196V4.01738C8.01196 3.80518 7.92772 3.60166 7.77778 3.45161C7.62784 3.30155 7.42448 3.21725 7.21243 3.21725C7.00039 3.21725 6.79702 3.30155 6.64708 3.45161C6.49714 3.60166 6.41291 3.80518 6.41291 4.01738V6.41778H4.01433C3.80229 6.41778 3.59892 6.50208 3.44898 6.65213C3.29904 6.80219 3.21481 7.0057 3.21481 7.21791C3.21481 7.43012 3.29904 7.63364 3.44898 7.78369C3.59892 7.93374 3.80229 8.01804 4.01433 8.01804H6.41291V10.4184C6.41291 10.6306 6.49714 10.8342 6.64708 10.9842C6.79702 11.1343 7.00039 11.2186 7.21243 11.2186C7.42448 11.2186 7.62784 11.1343 7.77778 10.9842C7.92772 10.8342 8.01196 10.6306 8.01196 10.4184V8.01804H10.4105C10.6226 8.01804 10.8259 7.93374 10.9759 7.78369C11.1258 7.63364 11.2101 7.43012 11.2101 7.21791C11.2101 7.0057 11.1258 6.80219 10.9759 6.65213C10.8259 6.50208 10.6226 6.41778 10.4105 6.41778ZM15.7753 14.6511L12.8091 11.7067C13.9605 10.2699 14.5181 8.44635 14.3672 6.61085C14.2164 4.77535 13.3685 3.06745 11.998 1.83834C10.6275 0.609226 8.83851 -0.0476794 6.9989 0.00269722C5.15928 0.0530739 3.40887 0.806903 2.10758 2.10918C0.806291 3.41146 0.0530336 5.1632 0.00269517 7.00421C-0.0476432 8.84523 0.608763 10.6356 1.83694 12.0071C3.06512 13.3787 4.77172 14.2272 6.60583 14.3781C8.43994 14.5291 10.2621 13.9711 11.6978 12.8188L14.64 15.7633C14.7143 15.8383 14.8028 15.8978 14.9002 15.9385C14.9976 15.9791 15.1021 16 15.2077 16C15.3132 16 15.4177 15.9791 15.5152 15.9385C15.6126 15.8978 15.701 15.8383 15.7753 15.7633C15.9194 15.6141 16 15.4147 16 15.2072C16 14.9997 15.9194 14.8003 15.7753 14.6511ZM7.21243 12.8188C6.10552 12.8188 5.02346 12.4903 4.10309 11.8749C3.18272 11.2595 2.46538 10.3847 2.04178 9.36129C1.61818 8.33786 1.50735 7.2117 1.7233 6.12523C1.93925 5.03875 2.47228 4.04076 3.25499 3.25746C4.0377 2.47416 5.03493 1.94072 6.12058 1.72461C7.20622 1.50849 8.33153 1.61941 9.35419 2.04333C10.3768 2.46725 11.2509 3.18514 11.8659 4.1062C12.4809 5.02727 12.8091 6.11015 12.8091 7.21791C12.8091 8.70337 12.2195 10.128 11.1699 11.1784C10.1203 12.2287 8.69676 12.8188 7.21243 12.8188Z" fill="#222222"/>
</svg>
