<svg width="26" height="26" viewBox="0 0 26 26" fill="none" xmlns="http://www.w3.org/2000/svg">
<path d="M26 1.3C26 0.58203 25.418 0 24.7 0H13.0054C12.2874 0 11.7054 0.58203 11.7054 1.3C11.7054 2.01797 12.2874 2.6 13.0054 2.6H23.4V23.4H13C12.282 23.4 11.7 23.982 11.7 24.7C11.7 25.418 12.282 26 13 26H24.7C25.418 26 26 25.418 26 24.7V1.3Z" fill="#222222"/>
<path d="M9.96528 7.31952C10.4079 6.89349 11.1255 6.89349 11.5681 7.31952L16.6061 12.169C16.8473 12.3691 17 12.6652 17 12.9957L17 12.9977C17.0006 13.2777 16.8899 13.5578 16.6681 13.7714L11.5681 18.6805C11.1255 19.1065 10.4079 19.1065 9.96528 18.6805C9.52268 18.2545 9.52268 17.5637 9.96528 17.1377L13.135 14.0866H1.13333C0.50741 14.0866 0 13.5982 0 12.9957C0 12.3932 0.50741 11.9048 1.13333 11.9048H13.1261L9.96528 8.8623C9.52268 8.43627 9.52268 7.74555 9.96528 7.31952Z" fill="#222222"/>
</svg>
